<svg xmlns="http://www.w3.org/2000/svg" viewBox="0 0 210 120">
  <defs>
    <style>
      .cls-1 {
        fill: #d1d3d4;
      }

      .cls-2 {
        fill: #bfd731;
      }
    </style>
  </defs>
  <title>illustration-images</title>
  <g id="images">
    <path id="grid" class="cls-1" d="M112.25853,77.94425H76.25487a7.20227,7.20227,0,0,1,0-10.186L89.82811,54.185c2.49878-2.49878,4.42859-4.42847,4.42859-4.42847l18.0022,18.00208A7.20238,7.20238,0,0,1,112.25853,77.94425Zm5.12526-74.914-1.41406,1.41406-1.41406-1.41406-.707.707,1.41406,1.41406-1.41406,1.41406.707.707,1.41406-1.41406,1.41406,1.41406.707-.707-1.41406-1.41406,1.41406-1.41406Zm22.64648,22.64648-1.41406,1.41406,1.41406,1.41406-.707.707-1.41406-1.41406-1.41406,1.41406-.707-.707,1.41406-1.41406-1.41406-1.41406.707-.707,1.41406,1.41406,1.41406-1.41406Zm20.52539,23.35352,1.41406,1.41406-.707.707-1.41406-1.41406-1.41406,1.41406-.707-.707,1.41406-1.41406-1.41406-1.41406.707-.707,1.41406,1.41406,1.41406-1.41406.707.707ZM96.15137,25.67676,94.7373,27.09082l1.41406,1.41406-.707.707-1.41406-1.41406-1.41406,1.41406-.707-.707,1.41406-1.41406-1.41406-1.41406.707-.707,1.41406,1.41406,1.41406-1.41406Zm21.93945,21.93945-1.41406,1.41406,1.41406,1.41406-.707.707-1.41406-1.41406-1.41406,1.41406-.707-.707,1.41406-1.41406-1.41406-1.41406.707-.707,1.41406,1.41406,1.41406-1.41406Zm21.93945,21.93945-1.41406,1.41406,1.41406,1.41406-.707.707-1.41406-1.41406-1.41406,1.41406-.707-.707,1.41406-1.41406-1.41406-1.41406.707-.707,1.41406,1.41406,1.41406-1.41406ZM118.09082,91.49512l-1.41406,1.41406,1.41406,1.41406-.707.707-1.41406-1.41406-1.41406,1.41406-.707-.707,1.41406-1.41406-1.41406-1.41406.707-.707,1.41406,1.41406,1.41406-1.41406ZM74.21191,47.61621l-1.41406,1.41406,1.41406,1.41406-.707.707L72.09082,49.7373l-1.41406,1.41406-.707-.707,1.41406-1.41406-1.41406-1.41406.707-.707,1.41406,1.41406,1.41406-1.41406ZM52.27246,69.55566,50.8584,70.96973l1.41406,1.41406-.707.707-1.41406-1.41406L48.7373,73.09082l-.707-.707,1.41406-1.41406-1.41406-1.41406.707-.707,1.41406,1.41406,1.41406-1.41406ZM74.21191,91.49512l-1.41406,1.41406,1.41406,1.41406-.707.707-1.41406-1.41406-1.41406,1.41406-.707-.707,1.41406-1.41406-1.41406-1.41406.707-.707,1.41406,1.41406,1.41406-1.41406Zm21.93945,21.93945-1.41406,1.41406,1.41406,1.41406-.707.707-1.41406-1.41406-1.41406,1.41406-.707-.707,1.41406-1.41406-1.41406-1.41406.707-.707,1.41406,1.41406,1.41406-1.41406ZM67.05554,37.5202a1.81165,1.81165,0,0,1-.00012,2.56219l-1.03387,1.03387-2.21332,2.21338-.18231.18231-.02332-.01434a1.80676,1.80676,0,0,1-2.35657-.16791L57.99872,40.0824a1.81173,1.81173,0,0,1,0-2.56226L61.413,34.10577c.6286-.6286,1.11407-1.114,1.11407-1.114Z"/>
    <path id="shape-lime" class="cls-2" d="M92.52708,69.59232,77.76585,54.831s-1.58252,1.5824-3.63135,3.63135c-.17822.1781-10.94507,10.94507-11.12964,11.12964a5.90557,5.90557,0,0,0,0,8.35229h29.522A5.90579,5.90579,0,0,0,92.52708,69.59232Z"/>
  </g>
</svg>
