<svg xmlns="http://www.w3.org/2000/svg" viewBox="0 0 210 120">
  <defs>
    <style>
      .cls-1 {
        fill: #d1d3d4;
      }

      .cls-2 {
        fill: #bfd731;
      }
    </style>
  </defs>
  <title>illustration-modals</title>
  <g id="modals">
    <path id="grid" class="cls-1" d="M196.72754,90.47351v5.59387H99.11523V22.38379h97.6123v5.46368h5V17.38379H94.11523v83.68359h107.6123V88.63452A12.51215,12.51215,0,0,1,196.72754,90.47351Z"/>
    <path id="shape-lime" class="cls-2" d="M35.97244,36.53589A1.54383,1.54383,0,0,1,34.42527,38.062a1.63146,1.63146,0,0,1-.78224-.21951,1.53671,1.53671,0,1,1,2.32941-1.30665ZM65.473,34.98939a1.5366,1.5366,0,0,0-.80291,2.85314,1.63146,1.63146,0,0,0,.78224.21951,1.53636,1.53636,0,1,0,.02067-3.07265ZM34.44595,66.01648a1.5366,1.5366,0,0,0-.80291,2.85314,1.63146,1.63146,0,0,0,.78224.21951,1.53636,1.53636,0,1,0,.02067-3.07265Zm31.02708,0a1.5366,1.5366,0,0,0-.80291,2.85314,1.63146,1.63146,0,0,0,.78224.21951,1.53636,1.53636,0,1,0,.02067-3.07265ZM34.44595,97.04356A1.5366,1.5366,0,0,0,33.643,99.8967a1.63146,1.63146,0,0,0,.78224.21951,1.53636,1.53636,0,1,0,.02067-3.07265Zm31.02708,0a1.5366,1.5366,0,0,0-.80291,2.85314,1.63146,1.63146,0,0,0,.78224.21951,1.53636,1.53636,0,1,0,.02067-3.07265ZM3.43954,34.98939a1.5366,1.5366,0,0,0-.80291,2.85314,1.63146,1.63146,0,0,0,.78224.21951,1.53636,1.53636,0,1,0,.02067-3.07265Zm0,31.02708a1.5366,1.5366,0,0,0-.80291,2.85314,1.63146,1.63146,0,0,0,.78224.21951,1.53636,1.53636,0,1,0,.02067-3.07265Zm0,31.02708a1.5366,1.5366,0,0,0-.80291,2.85314,1.63146,1.63146,0,0,0,.78224.21951,1.53636,1.53636,0,1,0,.02067-3.07265ZM128.13025,27.84747c-7.22327,0-13.07861,6.196-13.07861,13.83911V78.56891l.12646.019c.84546,6.77881,6.31458,12.01538,12.95215,12.01538h66.89893c7.22314,0,13.07861-6.196,13.07861-13.83911V27.84747Zm13.55206,47.95819a1.5366,1.5366,0,1,1,.18073-1.16461A1.61986,1.61986,0,0,1,141.68231,75.80566Zm0-10.34845a1.53655,1.53655,0,1,1,.18073-1.16461A1.62,1.62,0,0,1,141.68231,65.45721Zm0-10.34845a1.53655,1.53655,0,1,1,.18073-1.16461A1.6197,1.6197,0,0,1,141.68231,55.10876Zm4.7348,21.44086a1.47757,1.47757,0,0,1-.78351-.22021,1.53672,1.53672,0,1,1,.78351.22021Zm0-10.34845a1.47807,1.47807,0,0,1-.78351-.22015,1.5368,1.5368,0,1,1,.78351.22015Zm0-10.34845a1.47752,1.47752,0,0,1-.78351-.22015,1.5368,1.5368,0,1,1,.78351.22015Zm6.0603,20.69623a1.63214,1.63214,0,0,1-.78229-.21948,1.53768,1.53768,0,1,1,.78229.21948Zm0-10.34845a1.63147,1.63147,0,0,1-.78229-.21948,1.53768,1.53768,0,1,1,.78229.21948Zm0-10.34845a1.63147,1.63147,0,0,1-.78229-.21948,1.53768,1.53768,0,1,1,.78229.21948Zm6.06152,20.69775a1.63219,1.63219,0,0,1-.78229-.21954,1.53664,1.53664,0,1,1,.78229.21954Zm0-10.34845a1.63151,1.63151,0,0,1-.78229-.21954,1.53664,1.53664,0,1,1,.78229.21954Zm0-10.34845a1.63214,1.63214,0,0,1-.78229-.21948,1.53672,1.53672,0,1,1,.78229.21948Zm7.38788,19.95276a1.53665,1.53665,0,1,1,.18066-1.16461A1.62,1.62,0,0,1,165.92682,75.80566Zm0-10.34845a1.53661,1.53661,0,1,1,.18066-1.16461A1.62008,1.62008,0,0,1,165.92682,65.45721Zm0-10.34845a1.53661,1.53661,0,1,1,.18066-1.16461A1.61983,1.61983,0,0,1,165.92682,55.10876Zm4.7348,21.44086a1.47725,1.47725,0,0,1-.78351-.22021,1.53672,1.53672,0,1,1,.78351.22021Zm0-10.34845a1.47776,1.47776,0,0,1-.78351-.22015,1.5368,1.5368,0,1,1,.78351.22015Zm0-10.34845a1.47721,1.47721,0,0,1-.78351-.22015,1.5368,1.5368,0,1,1,.78351.22015ZM176.72186,76.549a1.63171,1.63171,0,0,1-.78223-.21948,1.53768,1.53768,0,1,1,.78223.21948Zm0-10.34845a1.631,1.631,0,0,1-.78223-.21948,1.53768,1.53768,0,1,1,.78223.21948Zm0-10.34845a1.631,1.631,0,0,1-.78223-.21948,1.53768,1.53768,0,1,1,.78223.21948Zm6.06152,20.69775a1.63176,1.63176,0,0,1-.78223-.21954,1.53659,1.53659,0,1,1,.78223.21954Zm0-10.34845a1.63108,1.63108,0,0,1-.78223-.21954,1.53659,1.53659,0,1,1,.78223.21954Zm0-10.34845a1.63171,1.63171,0,0,1-.78223-.21948,1.53667,1.53667,0,1,1,.78223.21948Zm17.00067-12.923a.93164.93164,0,0,1-1.38519,0l-1.67676-1.69714-1.64032,1.73572a.93164.93164,0,0,1-1.38519,0,1.11877,1.11877,0,0,1,0-1.46576l1.64032-1.73566-1.64032-1.73572a1.11868,1.11868,0,0,1,0-1.4657.97346.97346,0,0,1,1.38519,0l1.64032,1.73566,1.64032-1.73566a.97346.97346,0,0,1,1.38519,0,1.11869,1.11869,0,0,1,0,1.4657l-1.64032,1.73572,1.67676,1.69714A1.11869,1.11869,0,0,1,199.78406,42.92993Z"/>
  </g>
</svg>
