<svg xmlns="http://www.w3.org/2000/svg" viewBox="0 0 210 120">
  <defs>
    <style>
      .cls-1 {
        fill: #d1d3d4;
      }

      .cls-2 {
        fill: #bfd731;
      }
    </style>
  </defs>
  <title>illustration-navigation</title>
  <g id="navigation">
    <path id="grid" class="cls-1" d="M93.18591,5.1947,91.77051,3.7832l.70605-.709,1.41589,1.412,1.41223-1.41589.708.707L94.601,5.19275,96.0166,6.60449l-.70605.709L93.89441,5.90125,92.48193,7.31738l-.708-.707ZM113.7417,28.52148l.708.707,1.41248-1.41614,1.41614,1.41223.70605-.709-1.41565-1.41174,1.41174-1.41541-.708-.707-1.41223,1.41589-1.41589-1.412-.70605.709,1.41541,1.4115ZM183.8877,94.249l-1.41547-1.41156,1.412-1.41559-.708-.707-1.41254,1.41608-1.41608-1.41217-.70605.709,1.41547,1.41156-1.412,1.41559.708.707,1.41254-1.41608,1.41608,1.41217ZM69.86279,28.57813l.708.707L71.98328,27.869l1.41614,1.41223.70605-.709-1.41565-1.41174,1.41174-1.41541-.708-.707L71.98132,26.454l-1.41589-1.412-.70605.709,1.41541,1.4115ZM30.355,69.49219l-.708-.707-1.41254,1.41608-1.41608-1.41217-.70605.709,1.41547,1.41156-1.412,1.41559.708.707,1.41254-1.41608,1.41608,1.41217.70605-.709-1.41547-1.41156Zm43.74512.07227-.708-.707-1.41321,1.41675L70.56348,68.8623l-.70605.707,1.41577,1.41223-1.41235,1.41589.708.707,1.41272-1.41626,1.41589,1.41235.70605-.707-1.41626-1.41272ZM52.26367,91.40039l-.708-.707-1.413,1.41705-1.41565-1.41217-.70605.707,1.4162,1.41272L48.0249,94.23438l.708.707,1.41272-1.41681L51.561,94.93652l.70605-.707-1.416-1.41248Zm65.77393-21.833-.708-.707-1.41254,1.41608L114.501,68.86426l-.70605.709,1.41547,1.41156-1.412,1.41559.708.707,1.41254-1.41608,1.41608,1.41217.70605-.709L116.62555,70.983Zm43.93555,43.82227-.708-.707-1.41254,1.41608-1.41608-1.41217-.70605.709,1.41547,1.41156-1.412,1.41559.708.707,1.41254-1.41608,1.41608,1.41217.70605-.709-1.41547-1.41156ZM96.12646,91.53516l-.708-.707L94.00592,92.2442,92.58984,90.832l-.70605.709,1.41547,1.41156-1.412,1.41559.708.707,1.41254-1.41608,1.41608,1.41217.70605-.709-1.41547-1.41156ZM91.56018,51.3396h39.44641V46.95667H91.56018Zm-43.42981,0H87.57678V46.95667H48.13037Z"/>
    <path id="lime-shape" class="cls-2" d="M161.16528,47.009H135.51971V95.00409h39.44641V60.80988A13.80078,13.80078,0,0,0,161.16528,47.009Zm-19.361,10.37054a1.52182,1.52182,0,1,1-.18066,1.16467A1.60931,1.60931,0,0,1,141.80426,57.37958Zm2.6333,29.41541a1.53661,1.53661,0,1,1,.18066-1.16461A1.62008,1.62008,0,0,1,144.43756,86.795Zm0-13.91528a1.53661,1.53661,0,1,1,.18066-1.16461A1.62008,1.62008,0,0,1,144.43756,72.8797Zm4.754-16.24463a1.53668,1.53668,0,0,1-.01941,3.0733,1.47715,1.47715,0,0,1-.78345-.22015,1.53711,1.53711,0,0,1,.80286-2.85315Zm-.01929,30.90387a1.47807,1.47807,0,0,1-.78351-.22015,1.53685,1.53685,0,1,1,.78351.22015Zm0-13.91528a1.47807,1.47807,0,0,1-.78351-.22015,1.53685,1.53685,0,1,1,.78351.22015Zm6.08081-16.98859a1.53635,1.53635,0,1,1-.02063,3.07263,1.63147,1.63147,0,0,1-.78229-.21948,1.53662,1.53662,0,0,1,.80292-2.85315Zm-.02051,30.9032a1.63147,1.63147,0,0,1-.78229-.21948,1.53768,1.53768,0,1,1,.78229.21948Zm0-13.91528a1.63147,1.63147,0,0,1-.78229-.21948,1.53768,1.53768,0,1,1,.78229.21948Zm6.08081-16.98792a1.53677,1.53677,0,0,1-.01941,3.07349,1.63151,1.63151,0,0,1-.78229-.21954,1.53712,1.53712,0,0,1,.8017-2.85394Zm-.01929,30.90405a1.63151,1.63151,0,0,1-.78229-.21954,1.53664,1.53664,0,1,1,.78229.21954Zm0-13.91528a1.63151,1.63151,0,0,1-.78229-.21954,1.53664,1.53664,0,1,1,.78229.21954Zm4.75464-16.24426a1.52187,1.52187,0,1,1-.18066,1.16467A1.60936,1.60936,0,0,1,166.04877,57.37958ZM168.682,86.795a1.53656,1.53656,0,1,1,.18073-1.16461A1.62,1.62,0,0,1,168.682,86.795Zm0-13.91528a1.53656,1.53656,0,1,1,.18073-1.16461A1.62,1.62,0,0,1,168.682,72.8797Z"/>
  </g>
</svg>
