<svg id="Layer_1" data-name="Layer 1" xmlns="http://www.w3.org/2000/svg" viewBox="0 0 173 137">
  <defs>
    <style>
      .cls-1 {
        fill: #61a2d8;
      }

      .cls-2 {
        fill: #fff;
      }
    </style>
  </defs>
  <title>Artboard 1</title>
  <g>
    <path class="cls-1" d="M.86475,1.35571V110.864H147.63525V1.35571Zm140.77051,6V29.26782H6.86475V7.35571ZM6.86475,104.864V33.26782H141.63525V104.864Z"/>
    <circle class="cls-1" cx="18.35583" cy="18.84674" r="4.14032"/>
    <circle class="cls-1" cx="30.77679" cy="18.84674" r="4.14032"/>
    <circle class="cls-1" cx="43.19775" cy="18.84674" r="4.14032"/>
  </g>
  <g>
    <rect class="cls-2" x="16.60622" y="18.23706" width="138.52987" height="101.40728"/>
    <g>
      <path class="cls-1" d="M13.11475,13.74585V123.25366H159.88525V13.74585Zm140.77051,6V41.658H19.11475V19.74585ZM19.11475,117.25366V45.658H153.88525v71.5957Z"/>
      <circle class="cls-1" cx="30.60583" cy="31.23706" r="4.14032"/>
      <circle class="cls-1" cx="43.02679" cy="31.23706" r="4.14032"/>
      <circle class="cls-1" cx="55.44775" cy="31.23706" r="4.14032"/>
    </g>
  </g>
  <g>
    <rect class="cls-2" x="30.60581" y="31.23706" width="138.52987" height="101.40728"/>
    <g>
      <path class="cls-1" d="M25.36475,26.13647V135.64429H172.13525V26.13647Zm140.77051,6V54.04858H31.36475V32.13647ZM31.36475,129.64429V58.04858H166.13525v71.5957Z"/>
      <circle class="cls-1" cx="42.85583" cy="43.62738" r="4.14032"/>
      <circle class="cls-1" cx="55.27679" cy="43.62738" r="4.14032"/>
      <circle class="cls-1" cx="67.69775" cy="43.62738" r="4.14032"/>
    </g>
  </g>
</svg>
