<svg id="Layer_1" data-name="Layer 1" xmlns="http://www.w3.org/2000/svg" viewBox="0 0 214 159">
  <defs>
    <style>
      .cls-1 {
        fill: #bfd730;
      }

      .cls-2 {
        fill: #61a2d8;
      }

      .cls-3 {
        fill: #fff;
      }
    </style>
  </defs>
  <title>Artboard 1</title>
  <path class="cls-1" d="M109.762,57.47009a1,1,0,1,1,1,1A1,1,0,0,1,109.762,57.47009Zm-3,1a1,1,0,1,0-1-1A1,1,0,0,0,106.762,58.47009Zm-4,0a1,1,0,1,0-1-1A1,1,0,0,0,102.762,58.47009Zm-4,0a1,1,0,1,0-1-1A1,1,0,0,0,98.762,58.47009Zm-4,0a1,1,0,1,0-1-1A1,1,0,0,0,94.762,58.47009Zm-4,0a1,1,0,1,0-1-1A1,1,0,0,0,90.762,58.47009Zm-4,0a1,1,0,1,0-1-1A1,1,0,0,0,86.762,58.47009Zm32,0a1,1,0,1,0-1-1A1,1,0,0,0,118.762,58.47009Zm-4,0a1,1,0,1,0-1-1A1,1,0,0,0,114.762,58.47009Zm-4,10a1,1,0,1,0-1-1A1,1,0,0,0,110.762,68.47009Zm-4,0a1,1,0,1,0-1-1A1,1,0,0,0,106.762,68.47009Zm-4,0a1,1,0,1,0-1-1A1,1,0,0,0,102.762,68.47009Zm-4,0a1,1,0,1,0-1-1A1,1,0,0,0,98.762,68.47009Zm-4,0a1,1,0,1,0-1-1A1,1,0,0,0,94.762,68.47009Zm-4,0a1,1,0,1,0-1-1A1,1,0,0,0,90.762,68.47009Zm-4,0a1,1,0,1,0-1-1A1,1,0,0,0,86.762,68.47009Zm32,0a1,1,0,1,0-1-1A1,1,0,0,0,118.762,68.47009Zm-4,0a1,1,0,1,0-1-1A1,1,0,0,0,114.762,68.47009Zm-4,10a1,1,0,1,0-1-1A1,1,0,0,0,110.762,78.47009Zm-4,0a1,1,0,1,0-1-1A1,1,0,0,0,106.762,78.47009Zm-4,0a1,1,0,1,0-1-1A1,1,0,0,0,102.762,78.47009Zm-4,0a1,1,0,1,0-1-1A1,1,0,0,0,98.762,78.47009Zm-4,0a1,1,0,1,0-1-1A1,1,0,0,0,94.762,78.47009Zm-4,0a1,1,0,1,0-1-1A1,1,0,0,0,90.762,78.47009Zm-4,0a1,1,0,1,0-1-1A1,1,0,0,0,86.762,78.47009Zm32,0a1,1,0,1,0-1-1A1,1,0,0,0,118.762,78.47009Zm-4,0a1,1,0,1,0-1-1A1,1,0,0,0,114.762,78.47009Zm23.91667-20a1,1,0,1,0-1-1A1,1,0,0,0,138.67867,58.47009Zm-4,0a1,1,0,1,0-1-1A1,1,0,0,0,134.67867,58.47009Zm-4,0a1,1,0,1,0-1-1A1,1,0,0,0,130.67867,58.47009Zm-4,0a1,1,0,1,0-1-1A1,1,0,0,0,126.67867,58.47009Zm-4,0a1,1,0,1,0-1-1A1,1,0,0,0,122.67867,58.47009Zm16,10a1,1,0,1,0-1-1A1,1,0,0,0,138.67867,68.47009Zm-4,0a1,1,0,1,0-1-1A1,1,0,0,0,134.67867,68.47009Zm-4,0a1,1,0,1,0-1-1A1,1,0,0,0,130.67867,68.47009Zm-4,0a1,1,0,1,0-1-1A1,1,0,0,0,126.67867,68.47009Zm-4,0a1,1,0,1,0-1-1A1,1,0,0,0,122.67867,68.47009Zm16,10a1,1,0,1,0-1-1A1,1,0,0,0,138.67867,78.47009Zm-4,0a1,1,0,1,0-1-1A1,1,0,0,0,134.67867,78.47009Zm-4,0a1,1,0,1,0-1-1A1,1,0,0,0,130.67867,78.47009Zm-4,0a1,1,0,1,0-1-1A1,1,0,0,0,126.67867,78.47009Zm-4,0a1,1,0,1,0-1-1A1,1,0,0,0,122.67867,78.47009Zm36-20a1,1,0,1,0-1-1A1,1,0,0,0,158.67868,58.47009Zm-4,0a1,1,0,1,0-1-1A1,1,0,0,0,154.67868,58.47009Zm-4,0a1,1,0,1,0-1-1A1,1,0,0,0,150.67868,58.47009Zm-4,0a1,1,0,1,0-1-1A1,1,0,0,0,146.67868,58.47009Zm-4,0a1,1,0,1,0-1-1A1,1,0,0,0,142.67868,58.47009Zm16,10a1,1,0,1,0-1-1A1,1,0,0,0,158.67868,68.47009Zm-4,0a1,1,0,1,0-1-1A1,1,0,0,0,154.67868,68.47009Zm-4,0a1,1,0,1,0-1-1A1,1,0,0,0,150.67868,68.47009Zm-4,0a1,1,0,1,0-1-1A1,1,0,0,0,146.67868,68.47009Zm-4,0a1,1,0,1,0-1-1A1,1,0,0,0,142.67868,68.47009Zm16,10a1,1,0,1,0-1-1A1,1,0,0,0,158.67868,78.47009Zm-4,0a1,1,0,1,0-1-1A1,1,0,0,0,154.67868,78.47009Zm-4,0a1,1,0,1,0-1-1A1,1,0,0,0,150.67868,78.47009Zm-4,0a1,1,0,1,0-1-1A1,1,0,0,0,146.67868,78.47009Zm-4,0a1,1,0,1,0-1-1A1,1,0,0,0,142.67868,78.47009Z"/>
  <path class="cls-2" d="M206.92288.63159H38.5181a6.45,6.45,0,0,0-6.44287,6.44287v120.791a6.45043,6.45043,0,0,0,6.44287,6.44336H106.476v18.05957H86.4761v6h72.48877v-6H138.96469V134.30884h67.95819a6.45,6.45,0,0,0,6.44238-6.44336V7.07446A6.44959,6.44959,0,0,0,206.92288.63159ZM132.96469,134.452v17.80011H112.476V134.452Zm74.40057-6.58655a.44345.44345,0,0,1-.44238.44336H38.5181a.44387.44387,0,0,1-.44287-.44336V7.07446a.44345.44345,0,0,1,.44287-.44287H206.92288a.443.443,0,0,1,.44238.44287Z"/>
  <g>
    <rect class="cls-3" x="16.17186" y="68.47009" width="57.56158" height="77.4885"/>
    <path class="cls-2" d="M72.18592,69.697v5.34868H17.71937V69.697H72.18592m0,79.76464v5.28745H17.71937v-5.28745H72.18592M73.679,66.19394H16.22627a2.01,2.01,0,0,0-2.00995,2.01v88.03823a2.01,2.01,0,0,0,2.01,2.01H73.679a2.01,2.01,0,0,0,2.01-2.01V68.20394a2.01,2.01,0,0,0-2.01-2.01ZM16.17186,145.95859V78.54873H73.73344v67.40986Z"/>
    <path class="cls-1" d="M43.22545,106.38462a.58384.58384,0,1,1,.58384.58384A.58384.58384,0,0,1,43.22545,106.38462Zm-1.75152.58384a.58384.58384,0,1,0-.58384-.58384A.58384.58384,0,0,0,41.47393,106.96846Zm-2.33537,0a.58384.58384,0,1,0-.58384-.58384A.58384.58384,0,0,0,39.13856,106.96846Zm-2.33537,0a.58384.58384,0,1,0-.58384-.58384A.58384.58384,0,0,0,36.8032,106.96846Zm-2.33537,0a.58384.58384,0,1,0-.58384-.58384A.58384.58384,0,0,0,34.46783,106.96846Zm-2.33537,0a.58384.58384,0,1,0-.58384-.58384A.58384.58384,0,0,0,32.13247,106.96846Zm-2.33537,0a.58384.58384,0,1,0-.58384-.58384A.58384.58384,0,0,0,29.7971,106.96846Zm18.68292,0a.58384.58384,0,1,0-.58384-.58384A.58384.58384,0,0,0,48.48,106.96846Zm-2.33537,0a.58384.58384,0,1,0-.58384-.58384A.58384.58384,0,0,0,46.14466,106.96846Zm-2.33537,5.83841a.58384.58384,0,1,0-.58384-.58384A.58384.58384,0,0,0,43.8093,112.80688Zm-2.33537,0a.58384.58384,0,1,0-.58384-.58384A.58384.58384,0,0,0,41.47393,112.80688Zm-2.33537,0a.58384.58384,0,1,0-.58384-.58384A.58384.58384,0,0,0,39.13856,112.80688Zm-2.33537,0a.58384.58384,0,1,0-.58384-.58384A.58384.58384,0,0,0,36.8032,112.80688Zm-2.33537,0a.58384.58384,0,1,0-.58384-.58384A.58384.58384,0,0,0,34.46783,112.80688Zm-2.33537,0a.58384.58384,0,1,0-.58384-.58384A.58384.58384,0,0,0,32.13247,112.80688Zm-2.33537,0a.58384.58384,0,1,0-.58384-.58384A.58384.58384,0,0,0,29.7971,112.80688Zm18.68292,0a.58384.58384,0,1,0-.58384-.58384A.58384.58384,0,0,0,48.48,112.80688Zm-2.33537,0a.58384.58384,0,1,0-.58384-.58384A.58384.58384,0,0,0,46.14466,112.80688Zm-2.33537,5.83841a.58384.58384,0,1,0-.58384-.58384A.58384.58384,0,0,0,43.8093,118.64529Zm-2.33537,0a.58384.58384,0,1,0-.58384-.58384A.58384.58384,0,0,0,41.47393,118.64529Zm-2.33537,0a.58384.58384,0,1,0-.58384-.58384A.58384.58384,0,0,0,39.13856,118.64529Zm-2.33537,0a.58384.58384,0,1,0-.58384-.58384A.58384.58384,0,0,0,36.8032,118.64529Zm-2.33537,0a.58384.58384,0,1,0-.58384-.58384A.58384.58384,0,0,0,34.46783,118.64529Zm-2.33537,0a.58384.58384,0,1,0-.58384-.58384A.58384.58384,0,0,0,32.13247,118.64529Zm-2.33537,0a.58384.58384,0,1,0-.58384-.58384A.58384.58384,0,0,0,29.7971,118.64529Zm18.68292,0a.58384.58384,0,1,0-.58384-.58384A.58384.58384,0,0,0,48.48,118.64529Zm-2.33537,0a.58384.58384,0,1,0-.58384-.58384A.58384.58384,0,0,0,46.14466,118.64529ZM60.1082,106.96846a.58384.58384,0,1,0-.58384-.58384A.58384.58384,0,0,0,60.1082,106.96846Zm-2.33537,0a.58384.58384,0,1,0-.58384-.58384A.58384.58384,0,0,0,57.77284,106.96846Zm-2.33537,0a.58384.58384,0,1,0-.58384-.58384A.58384.58384,0,0,0,55.43747,106.96846Zm-2.33537,0a.58384.58384,0,1,0-.58384-.58384A.58384.58384,0,0,0,53.1021,106.96846Zm-2.33537,0a.58384.58384,0,1,0-.58384-.58384A.58384.58384,0,0,0,50.76674,106.96846Zm9.34146,5.83841a.58384.58384,0,1,0-.58384-.58384A.58384.58384,0,0,0,60.1082,112.80688Zm-2.33537,0a.58384.58384,0,1,0-.58384-.58384A.58384.58384,0,0,0,57.77284,112.80688Zm-2.33537,0a.58384.58384,0,1,0-.58384-.58384A.58384.58384,0,0,0,55.43747,112.80688Zm-2.33537,0a.58384.58384,0,1,0-.58384-.58384A.58384.58384,0,0,0,53.1021,112.80688Zm-2.33537,0a.58384.58384,0,1,0-.58384-.58384A.58384.58384,0,0,0,50.76674,112.80688Zm9.34146,5.83841a.58384.58384,0,1,0-.58384-.58384A.58384.58384,0,0,0,60.1082,118.64529Zm-2.33537,0a.58384.58384,0,1,0-.58384-.58384A.58384.58384,0,0,0,57.77284,118.64529Zm-2.33537,0a.58384.58384,0,1,0-.58384-.58384A.58384.58384,0,0,0,55.43747,118.64529Zm-2.33537,0a.58384.58384,0,1,0-.58384-.58384A.58384.58384,0,0,0,53.1021,118.64529Zm-2.33537,0a.58384.58384,0,1,0-.58384-.58384A.58384.58384,0,0,0,50.76674,118.64529Z"/>
  </g>
  <rect class="cls-3" x="1.60016" y="104.87325" width="24.24265" height="52.3486"/>
  <path class="cls-2" d="M24.45144,104.87325v4.019H3.2669v-4.019H24.45144m0,46.77376v3.973H3.2669v-3.973H24.45144m1.12188-49.40593H2.145a1.51026,1.51026,0,0,0-1.51026,1.51026v52.99048a1.51028,1.51028,0,0,0,1.51029,1.5103h23.4283a1.51028,1.51028,0,0,0,1.51029-1.5103V103.75139a1.51029,1.51029,0,0,0-1.51029-1.5103ZM2.10411,149.01485V111.52438H25.61424v37.49047Z"/>
  <path class="cls-1" d="M16.99408,125.47827a.43869.43869,0,1,1,.43869.43869A.43869.43869,0,0,1,16.99408,125.47827ZM15.678,125.917a.43869.43869,0,1,0-.43869-.43869A.43869.43869,0,0,0,15.678,125.917Zm-1.75478,0a.43869.43869,0,1,0-.43869-.43869A.43869.43869,0,0,0,13.92322,125.917Zm-1.75478,0a.43869.43869,0,1,0-.43869-.43869A.43869.43869,0,0,0,12.16845,125.917Zm-1.75478,0a.43869.43869,0,1,0-.43869-.43869A.43869.43869,0,0,0,10.41367,125.917Zm-1.75478,0a.43869.43869,0,1,0-.43869-.43869A.43869.43869,0,0,0,8.65889,125.917Zm-1.75478,0a.43869.43869,0,1,0-.43869-.43869A.43869.43869,0,0,0,6.90411,125.917Zm14.03822,0a.43869.43869,0,1,0-.43869-.43869A.43869.43869,0,0,0,20.94233,125.917Zm-1.75478,0a.43869.43869,0,1,0-.43869-.43869A.43869.43869,0,0,0,19.18756,125.917Zm-1.75478,4.38694a.43869.43869,0,1,0-.43869-.43869A.43869.43869,0,0,0,17.43278,130.30391Zm-1.75478,0a.43869.43869,0,1,0-.43869-.43869A.43869.43869,0,0,0,15.678,130.30391Zm-1.75478,0a.43869.43869,0,1,0-.43869-.43869A.43869.43869,0,0,0,13.92322,130.30391Zm-1.75478,0a.43869.43869,0,1,0-.43869-.43869A.43869.43869,0,0,0,12.16845,130.30391Zm-1.75478,0a.43869.43869,0,1,0-.43869-.43869A.43869.43869,0,0,0,10.41367,130.30391Zm-1.75478,0a.43869.43869,0,1,0-.43869-.43869A.43869.43869,0,0,0,8.65889,130.30391Zm-1.75478,0a.43869.43869,0,1,0-.43869-.43869A.43869.43869,0,0,0,6.90411,130.30391Zm14.03822,0a.43869.43869,0,1,0-.43869-.43869A.43869.43869,0,0,0,20.94233,130.30391Zm-1.75478,0a.43869.43869,0,1,0-.43869-.43869A.43869.43869,0,0,0,19.18756,130.30391Zm-1.75478,4.38694a.43869.43869,0,1,0-.43869-.43869A.43869.43869,0,0,0,17.43278,134.69086Zm-1.75478,0a.43869.43869,0,1,0-.43869-.43869A.43869.43869,0,0,0,15.678,134.69086Zm-1.75478,0a.43869.43869,0,1,0-.43869-.43869A.43869.43869,0,0,0,13.92322,134.69086Zm-1.75478,0a.43869.43869,0,1,0-.43869-.43869A.43869.43869,0,0,0,12.16845,134.69086Zm-1.75478,0a.43869.43869,0,1,0-.43869-.43869A.43869.43869,0,0,0,10.41367,134.69086Zm-1.75478,0a.43869.43869,0,1,0-.43869-.43869A.43869.43869,0,0,0,8.65889,134.69086Zm-1.75478,0a.43869.43869,0,1,0-.43869-.43869A.43869.43869,0,0,0,6.90411,134.69086Zm14.03822,0a.43869.43869,0,1,0-.43869-.43869A.43869.43869,0,0,0,20.94233,134.69086Zm-1.75478,0a.43869.43869,0,1,0-.43869-.43869A.43869.43869,0,0,0,19.18756,134.69086Z"/>
</svg>
