<svg xmlns="http://www.w3.org/2000/svg" viewBox="0 0 210 120">
  <defs>
    <style>
      .cls-1 {
        fill: #d1d3d4;
      }

      .cls-2 {
        fill: #bfd731;
      }
    </style>
  </defs>
  <title>illustration-custom-elements</title>
  <g id="custom-elements">
    <path id="grid" class="cls-1" d="M121.01367,75.01367h2v1h-2v2h-1v-2h-2v-1h2v-2h1ZM154.04053,106.04h-2v-2h-1v2h-2v1h2v2h1v-2h2Zm-33.02686-2h-1v2h-2v1h2v2h1v-2h2v-1h-2Zm-31.02734,0h-1v2h-2v1h2v2h1v-2h2v-1h-2Zm-31.02686,0h-1v2h-2v1h2v2h1v-2h2v-1h-2Zm-31.02686,0h-1v2h-2v1h2v2h1v-2h2v-1h-2Z"/>
    <path id="shape-lime" class="cls-2" d="M185.06738,12.95947v1h-2v2h-1v-2h-2v-1h2v-2h1v2Zm-33.02734-2h-1v2h-2v1h2v2h1v-2h2v-1h-2Zm-31.02637,0h-1v2h-2v1h2v2h1v-2h2v-1h-2Zm-32.02734,5h1v-2h2v-1h-2v-2h-1v2h-2v1h2Zm32.02734,26.02637h-1v2h-2v1h2v2h1v-2h2v-1h-2Zm31.02637,0h-1v2h-2v1h2v2h1v-2h2v-1h-2Zm31.02734,0h-1v2h-2v1h2v2h1v-2h2v-1h-2ZM152.04,73.01367h-1v1.99963l-2,.00037v1l2-.00037v2.00037h1V76.01306l2-.00037v-1l-2,.00037Zm31.02734,0h-1v1.99963l-2,.00037v1l2-.00037v2.00037h1V76.01306l2-.00037v-1l-2,.00037Zm0,31.02734h-1v1.99963l-2,.00037v1l2-.00037V109.041h1v-2.00061l2-.00037v-1l-2,.00037ZM62.6651,67.97919l3.53552,3.53558,19.4975-19.49756L82.1626,48.48169Zm.48071-22.33038-3.53552-3.53552L41.75122,59.97235l.02734.0274-.02734.02734L59.61029,77.88623l3.53552-3.53552-14.35089-14.351Zm26.217-3.53552L85.82727,45.6488l14.35089,14.351-14.35089,14.351,3.53552,3.53552,17.85907-17.85907-.02734-.0274.02734-.02734Z"/>
  </g>
</svg>
