<svg id="Layer_1" data-name="Layer 1" xmlns="http://www.w3.org/2000/svg" viewBox="0 0 145 37">
  <defs>
    <style>
      .cls-1 {
        fill: #61a2d8;
      }

      .cls-2 {
        fill: #bfd730;
      }
    </style>
  </defs>
  <title>Artboard 1</title>
  <path id="caret" class="cls-1" d="M103.11656,30.015,99.581,26.47948,119.07854,6.982l3.53553,3.53553ZM22.25682,4.149,18.72129.61353.86222,18.4726.88957,18.5l-.02734.02734L18.72129,36.38647,22.25682,32.851,7.90593,18.5ZM122.74318,32.851l3.53552,3.53552L144.13778,18.5274l-.02734-.0274.02734-.02734L126.27871.61353,122.74318,4.149,137.09407,18.5Z"/>
  <path id="dots" class="cls-2" d="M31.9318,23.89108h-5V13.64249h5Zm9.16728-10.2486h-5v10.2486h5Zm9.09438,0h-5v10.2486h5Zm9.16728,0h-5v10.2486h5Zm9.30785,0h-5v10.2486h5Zm9.16728,0h-5v10.2486h5Zm9.09438,0h-5v10.2486h5Zm9.16728,0h-5v10.2486h5Z"/>
</svg>
