<svg xmlns="http://www.w3.org/2000/svg" viewBox="0 0 210 120">
  <defs>
    <style>
      .cls-1 {
        fill: #bfd731;
      }

      .cls-2 {
        fill: #d1d3d4;
      }
    </style>
  </defs>
  <title>illustration-buttons</title>
  <g id="buttons">
    <path id="shape-lime" class="cls-1" d="M163.07657,85.5097H95.49826V99.93115a14.42131,14.42131,0,0,0,14.42145,14.42139h53.15686a14.42142,14.42142,0,1,0,0-28.84283Zm-47.39636,15.71448a1.53661,1.53661,0,1,1,.18073-1.16461A1.61986,1.61986,0,0,1,115.68021,101.22418Zm4.7348.744a1.47756,1.47756,0,0,1-.78351-.22021,1.53672,1.53672,0,1,1,.78351.22021Zm6.06024-.00067a1.63147,1.63147,0,0,1-.78223-.21954,1.5376,1.5376,0,1,1,.78223.21954Zm6.06152.00085a1.63215,1.63215,0,0,1-.78223-.21954,1.53664,1.53664,0,1,1,.78223.21954Zm7.38794-.74414a1.53665,1.53665,0,1,1,.18066-1.16461A1.62,1.62,0,0,1,139.92471,101.22418Zm4.7348.744a1.47725,1.47725,0,0,1-.78351-.22021,1.53672,1.53672,0,1,1,.78351.22021Zm5.98077-.00067a1.63108,1.63108,0,0,1-.78223-.21954,1.5376,1.5376,0,1,1,.78223.21954Zm6.06152.00085a1.63176,1.63176,0,0,1-.78223-.21954,1.53659,1.53659,0,1,1,.78223.21954Z"/>
    <path id="grid" class="cls-2" d="M83.93253,39.1745A17.90335,17.90335,0,1,1,66.02914,21.27118,17.90339,17.90339,0,0,1,83.93253,39.1745Zm36.97369,14.00964a1.53665,1.53665,0,1,0,1.86945,1.125A1.60965,1.60965,0,0,0,120.90622,53.18414Zm5.64008,2.81335a1.47719,1.47719,0,0,0,.78345.22021,1.53527,1.53527,0,1,0-.78345-.22021Zm6.86438-2.85309a1.5366,1.5366,0,0,0-.80286,2.85315,1.63171,1.63171,0,0,0,.78223.21948,1.53635,1.53635,0,1,0,.02063-3.07263Zm-37.874,1.90912a1.558,1.558,0,1,0,.18073-1.16461A1.61683,1.61683,0,0,0,95.53665,55.05353Zm19.68982-1.90912a1.5371,1.5371,0,0,0-.80164,2.85394,1.63176,1.63176,0,0,0,.78223.21954,1.53677,1.53677,0,0,0,.01941-3.07349Zm-12.12177,0a1.53707,1.53707,0,0,0-.80292,2.85309,1.47725,1.47725,0,0,0,.78351.22021,1.53668,1.53668,0,0,0,.01941-3.0733Zm6.06152,0a1.5366,1.5366,0,0,0-.80292,2.85315,1.63171,1.63171,0,0,0,.78223.21948,1.53635,1.53635,0,1,0,.02069-3.07263Zm30.34784,0a1.5366,1.5366,0,0,0-.80292,2.85315,1.63171,1.63171,0,0,0,.78223.21948,1.53635,1.53635,0,1,0,.02069-3.07263Zm6.06146,0a1.5366,1.5366,0,0,0-.80292,2.85315,1.63171,1.63171,0,0,0,.78223.21948,1.53635,1.53635,0,1,0,.02069-3.07263Zm6.06146,0a1.53662,1.53662,0,0,0-.80292,2.85315,1.63214,1.63214,0,0,0,.78229.21948,1.53635,1.53635,0,1,0,.02063-3.07263ZM120.90622,37.67755a1.53661,1.53661,0,1,0,1.86945,1.12494A1.6094,1.6094,0,0,0,120.90622,37.67755Zm5.64008,2.81335a1.47715,1.47715,0,0,0,.78345.22015,1.53513,1.53513,0,1,0-.78345-.22015Zm6.86438-2.85315a1.5366,1.5366,0,0,0-.80286,2.85315,1.63176,1.63176,0,0,0,.78223.21954,1.53638,1.53638,0,1,0,.02063-3.07269Zm-37.874,1.90918a1.558,1.558,0,1,0,.18073-1.16461A1.617,1.617,0,0,0,95.53665,39.54694Zm19.68982-1.90918a1.53714,1.53714,0,0,0-.80164,2.854,1.631,1.631,0,0,0,.78223.21948,1.53677,1.53677,0,0,0,.01941-3.07349Zm-12.12177,0a1.53711,1.53711,0,0,0-.80292,2.85315,1.47721,1.47721,0,0,0,.78351.22015,1.53668,1.53668,0,0,0,.01941-3.0733Zm6.06152,0a1.5366,1.5366,0,0,0-.80292,2.85315,1.63176,1.63176,0,0,0,.78223.21954,1.53638,1.53638,0,1,0,.02069-3.07269Zm30.34784,0a1.5366,1.5366,0,0,0-.80292,2.85315,1.63176,1.63176,0,0,0,.78223.21954,1.53638,1.53638,0,1,0,.02069-3.07269Zm6.06146,0a1.5366,1.5366,0,0,0-.80292,2.85315,1.63176,1.63176,0,0,0,.78223.21954,1.53638,1.53638,0,1,0,.02069-3.07269Zm6.06146,0a1.53662,1.53662,0,0,0-.80292,2.85315,1.63219,1.63219,0,0,0,.78229.21954,1.53638,1.53638,0,1,0,.02063-3.07269Zm6.04083,3.07269a1.53558,1.53558,0,1,0-.78223-.21954A1.63176,1.63176,0,0,0,157.67783,40.71045ZM163.76,37.63776a1.5366,1.5366,0,0,0-.80292,2.85315,1.63176,1.63176,0,0,0,.78223.21954,1.53638,1.53638,0,1,0,.02069-3.07269Zm6.06146,0a1.53662,1.53662,0,0,0-.80292,2.85315,1.63219,1.63219,0,0,0,.78229.21954,1.53638,1.53638,0,1,0,.02063-3.07269Zm6.06152,0a1.5366,1.5366,0,0,0-.80292,2.85315,1.63176,1.63176,0,0,0,.78223.21954,1.53638,1.53638,0,1,0,.02069-3.07269ZM120.90622,22.171a1.53661,1.53661,0,1,0,1.86945,1.12494A1.60931,1.60931,0,0,0,120.90622,22.171Zm6.42352,3.03351a1.53527,1.53527,0,1,0-.78345-.22021A1.47719,1.47719,0,0,0,127.32974,25.20447Zm6.08093-3.0733a1.5366,1.5366,0,0,0-.80286,2.85315,1.63171,1.63171,0,0,0,.78223.21948,1.53635,1.53635,0,1,0,.02063-3.07263ZM96.24161,24.98456a1.52168,1.52168,0,1,0-.705-.94427A1.61982,1.61982,0,0,0,96.24161,24.98456Zm18.98486-2.85339a1.5371,1.5371,0,0,0-.80164,2.85394,1.63176,1.63176,0,0,0,.78223.21954,1.53677,1.53677,0,0,0,.01941-3.07349Zm-12.12177,0a1.53707,1.53707,0,0,0-.80292,2.85309,1.47725,1.47725,0,0,0,.78351.22021,1.53668,1.53668,0,0,0,.01941-3.0733Zm6.06152,0a1.5366,1.5366,0,0,0-.80292,2.85315,1.63171,1.63171,0,0,0,.78223.21948,1.53635,1.53635,0,1,0,.02069-3.07263Zm30.34784,0a1.5366,1.5366,0,0,0-.80292,2.85315,1.63171,1.63171,0,0,0,.78223.21948,1.53635,1.53635,0,1,0,.02069-3.07263Zm6.06146,0a1.5366,1.5366,0,0,0-.80292,2.85315,1.63171,1.63171,0,0,0,.78223.21948,1.53635,1.53635,0,1,0,.02069-3.07263Zm6.06146,0a1.53662,1.53662,0,0,0-.80292,2.85315,1.63214,1.63214,0,0,0,.78229.21948,1.53635,1.53635,0,1,0,.02063-3.07263Zm6.04083,3.07263a1.53544,1.53544,0,1,0-.78223-.21948A1.63171,1.63171,0,0,0,157.67783,25.2038ZM163.76,22.13116a1.5366,1.5366,0,0,0-.80292,2.85315,1.63171,1.63171,0,0,0,.78223.21948,1.53635,1.53635,0,1,0,.02069-3.07263Zm6.06146,0a1.53662,1.53662,0,0,0-.80292,2.85315,1.63214,1.63214,0,0,0,.78229.21948,1.53635,1.53635,0,1,0,.02063-3.07263ZM175.08,24.98431a1.63171,1.63171,0,0,0,.78223.21948,1.53544,1.53544,0,1,0-.78223-.21948ZM35.502,5.64746h-1v2h-2v1h2v2h1v-2h2v-1h-2Zm30.02734,5h1v-2h2v-1h-2v-2h-1v2h-2v1h2Zm32.02686-5h-1v2h-2v1h2v2h1v-2h2v-1h-2Zm31.02734,0h-1v2h-2v1h2v2h1v-2h2v-1h-2Zm31.02686,0h-1v2h-2v1h2v2h1v-2h2v-1h-2ZM97.55618,67.70117h-1v2h-2v1h2v2h1v-2h2v-1h-2Zm31.02734,0h-1v2h-2v1h2v2h1v-2h2v-1h-2Zm31.02686,0h-1v2h-2v1h2v2h1v-2h2v-1h-2ZM35.502,36.67432h-1v2h-2v1h2v2h1v-2h2v-1h-2ZM66.52933,67.70117h-1v2h-2v1h2v2h1v-2h2v-1h-2Zm-31.02734,0h-1v2h-2v1h2v2h1v-2h2v-1h-2Z"/>
  </g>
</svg>
