<svg id="tables" xmlns="http://www.w3.org/2000/svg" viewBox="0 0 210 120">
  <defs>
    <style>
      .cls-1 {
        fill: #d1d3d4;
      }

      .cls-2 {
        fill: #bfd731;
      }
    </style>
  </defs>
  <title>illustration-tables</title>
  <path id="grid" class="cls-1" d="M168.99316,16.459h-2v-1h2v-2h1v2h2v1h-2v2h-1Zm34.02734-1h-2v-2h-1v2h-2v1h2v2h1v-2h2ZM14.958,44.48633h-1v2h-2v1h2v2h1v-2h2v-1h-2Zm0,62.05469h-1v2h-2v1h2v2h1v-2h2v-1h-2Zm31.02734,0h-1v2h-2v1h2v2h1v-2h2v-1h-2Zm31.02637,0h-1v2h-2v1h2v2h1v-2h2v-1h-2Zm31.02734,0h-1v2h-2v1h2v2h1v-2h2v-1h-2Zm31.02734,0h-1v2h-2v1h2v2h1v-2h2v-1h-2Zm31.02734,0h-1v2h-2v1h2v2h1v-2h2v-1h-2ZM70.07825,45.4895a1.5366,1.5366,0,1,0,1.86946,1.125A1.60943,1.60943,0,0,0,70.07825,45.4895Zm6.443-.03979a1.53711,1.53711,0,0,0-.80291,2.85314,1.47753,1.47753,0,0,0,.7835.22018,1.53669,1.53669,0,0,0,.01941-3.07333Zm6.06152,0a1.5366,1.5366,0,0,0-.80291,2.85314,1.63146,1.63146,0,0,0,.78224.21951,1.53636,1.53636,0,1,0,.02067-3.07265Zm19.18422-.0156a1.53711,1.53711,0,0,0-.80291,2.85314,1.47753,1.47753,0,0,0,.7835.22018,1.53669,1.53669,0,0,0,.01941-3.07333Zm6.06152,0a1.5366,1.5366,0,0,0-.80291,2.85314,1.63146,1.63146,0,0,0,.78224.21951,1.53636,1.53636,0,1,0,.02067-3.07265Zm6.10335,0a1.5366,1.5366,0,0,0-.80291,2.85314,1.63146,1.63146,0,0,0,.78224.21951,1.53636,1.53636,0,1,0,.02067-3.07265Zm18.56159,0a1.53711,1.53711,0,0,0-.80291,2.85314,1.47753,1.47753,0,0,0,.7835.22018,1.53669,1.53669,0,0,0,.01941-3.07333Zm6.06152,0a1.5366,1.5366,0,0,0-.80291,2.85314,1.63146,1.63146,0,0,0,.78224.21951,1.53636,1.53636,0,1,0,.02067-3.07265Zm6.10335,0a1.5366,1.5366,0,0,0-.80291,2.85314,1.63146,1.63146,0,0,0,.78224.21951,1.53636,1.53636,0,1,0,.02067-3.07265Zm6.10336.01558a1.5366,1.5366,0,0,0-.80291,2.85314,1.63146,1.63146,0,0,0,.78224.21951,1.53636,1.53636,0,1,0,.02067-3.07265Zm6.06148,0a1.5366,1.5366,0,0,0-.80291,2.85314,1.63146,1.63146,0,0,0,.78224.21951,1.53636,1.53636,0,1,0,.02067-3.07265Zm6.06148,0a1.5366,1.5366,0,0,0-.80291,2.85314,1.63146,1.63146,0,0,0,.78224.21951,1.53636,1.53636,0,1,0,.02067-3.07265Zm6.06148,0a1.5366,1.5366,0,0,0-.80291,2.85314,1.63146,1.63146,0,0,0,.78224.21951,1.53636,1.53636,0,1,0,.02067-3.07265Zm6.08333,0a1.5366,1.5366,0,0,0-.80291,2.85314,1.63146,1.63146,0,0,0,.78224.21951,1.53636,1.53636,0,1,0,.02067-3.07265ZM39.01054,14.52825A1.5366,1.5366,0,1,0,40.88,15.6532,1.60943,1.60943,0,0,0,39.01054,14.52825Zm6.443-.03979a1.53711,1.53711,0,0,0-.80291,2.85314,1.47753,1.47753,0,0,0,.7835.22018,1.53669,1.53669,0,0,0,.01941-3.07333Zm6.06152,0a1.5366,1.5366,0,0,0-.80291,2.85314,1.63146,1.63146,0,0,0,.78224.21951,1.53636,1.53636,0,1,0,.02067-3.07265Zm19.18422-.0156a1.53711,1.53711,0,0,0-.80291,2.85314,1.47753,1.47753,0,0,0,.7835.22018,1.53669,1.53669,0,0,0,.01941-3.07333Zm6.06152,0a1.5366,1.5366,0,0,0-.80291,2.85314,1.63146,1.63146,0,0,0,.78224.21951,1.53636,1.53636,0,1,0,.02067-3.07265Zm6.10335,0a1.5366,1.5366,0,0,0-.80291,2.85314,1.63146,1.63146,0,0,0,.78224.21951,1.53636,1.53636,0,1,0,.02067-3.07265Zm18.56159,0a1.53711,1.53711,0,0,0-.80291,2.85314,1.47753,1.47753,0,0,0,.7835.22018,1.53669,1.53669,0,0,0,.01941-3.07333Zm6.06152,0a1.5366,1.5366,0,0,0-.80291,2.85314,1.63146,1.63146,0,0,0,.78224.21951,1.53636,1.53636,0,1,0,.02067-3.07265Zm6.10335,0a1.5366,1.5366,0,0,0-.80291,2.85314,1.63146,1.63146,0,0,0,.78224.21951,1.53636,1.53636,0,1,0,.02067-3.07265Zm6.10336.01558a1.5366,1.5366,0,0,0-.80291,2.85314,1.63146,1.63146,0,0,0,.78224.21951,1.53636,1.53636,0,1,0,.02067-3.07265Zm6.06148,0a1.5366,1.5366,0,0,0-.80291,2.85314,1.63146,1.63146,0,0,0,.78224.21951,1.53636,1.53636,0,1,0,.02067-3.07265Zm6.06148,0a1.5366,1.5366,0,0,0-.80291,2.85314,1.63146,1.63146,0,0,0,.78224.21951,1.53636,1.53636,0,1,0,.02067-3.07265Zm6.06148,0a1.5366,1.5366,0,0,0-.80291,2.85314,1.63146,1.63146,0,0,0,.78224.21951,1.53636,1.53636,0,1,0,.02067-3.07265Zm6.08333,0a1.5366,1.5366,0,0,0-.80291,2.85314,1.63146,1.63146,0,0,0,.78224.21951,1.53636,1.53636,0,1,0,.02067-3.07265ZM39.01054,76.51658a1.5366,1.5366,0,1,0,1.86946,1.125A1.60943,1.60943,0,0,0,39.01054,76.51658Zm6.443-.03979a1.53711,1.53711,0,0,0-.80291,2.85314,1.47753,1.47753,0,0,0,.7835.22018,1.53669,1.53669,0,0,0,.01941-3.07333Zm6.06152,0a1.5366,1.5366,0,0,0-.80291,2.85314,1.63146,1.63146,0,0,0,.78224.21951,1.53636,1.53636,0,1,0,.02067-3.07265Zm19.18422-.0156a1.53711,1.53711,0,0,0-.80291,2.85314,1.47753,1.47753,0,0,0,.7835.22018,1.53669,1.53669,0,0,0,.01941-3.07333Zm6.06152,0a1.5366,1.5366,0,0,0-.80291,2.85314,1.63146,1.63146,0,0,0,.78224.21951,1.53636,1.53636,0,1,0,.02067-3.07265Zm6.10335,0a1.5366,1.5366,0,0,0-.80291,2.85314,1.63146,1.63146,0,0,0,.78224.21951,1.53636,1.53636,0,1,0,.02067-3.07265Zm18.56159,0a1.53711,1.53711,0,0,0-.80291,2.85314,1.47753,1.47753,0,0,0,.7835.22018,1.53669,1.53669,0,0,0,.01941-3.07333Zm6.06152,0a1.5366,1.5366,0,0,0-.80291,2.85314,1.63146,1.63146,0,0,0,.78224.21951,1.53636,1.53636,0,1,0,.02067-3.07265Zm6.10335,0a1.5366,1.5366,0,0,0-.80291,2.85314,1.63146,1.63146,0,0,0,.78224.21951,1.53636,1.53636,0,1,0,.02067-3.07265Zm6.10336.01558a1.5366,1.5366,0,0,0-.80291,2.85314,1.63146,1.63146,0,0,0,.78224.21951,1.53636,1.53636,0,1,0,.02067-3.07265Zm6.06148,0a1.5366,1.5366,0,0,0-.80291,2.85314,1.63146,1.63146,0,0,0,.78224.21951,1.53636,1.53636,0,1,0,.02067-3.07265Zm6.06148,0a1.5366,1.5366,0,0,0-.80291,2.85314,1.63146,1.63146,0,0,0,.78224.21951,1.53636,1.53636,0,1,0,.02067-3.07265Zm6.06148,0a1.5366,1.5366,0,0,0-.80291,2.85314,1.63146,1.63146,0,0,0,.78224.21951,1.53636,1.53636,0,1,0,.02067-3.07265Zm6.08333,0a1.5366,1.5366,0,0,0-.80291,2.85314,1.63146,1.63146,0,0,0,.78224.21951,1.53636,1.53636,0,1,0,.02067-3.07265Z"/>
  <path id="shape-lime" class="cls-2" d="M49.842,39.42063a3.33683,3.33683,0,0,1,3.33685,3.33686V54.55229H41.384a3.33683,3.33683,0,0,1-3.33685-3.33685V39.42063ZM6.97947,8.45938V20.25418A3.33683,3.33683,0,0,0,10.31633,23.591H22.11114V11.79623a3.33683,3.33683,0,0,0-3.33685-3.33685Zm0,61.98833V82.24251a3.33683,3.33683,0,0,0,3.33685,3.33686H22.11114V73.78456a3.33683,3.33683,0,0,0-3.33685-3.33685Z"/>
</svg>
