<svg xmlns="http://www.w3.org/2000/svg" viewBox="0 0 210 120">
  <defs>
    <style>
      .cls-1 {
        fill: #d1d3d4;
      }

      .cls-2 {
        fill: #bfd731;
      }
    </style>
  </defs>
  <title>illustration-framework</title>
  <g id="framework">
    <path id="grid" class="cls-1" d="M27.93213,12.959h2v1h-2v2h-1v-2h-2v-1h2v-2h1Zm31.02734-2h-1v2h-2v1h2v2h1v-2h2v-1h-2Zm31.02686,0h-1v2h-2v1h2v2h1v-2h2v-1h-2Zm31.02734,0h-1v2h-2v1h2v2h1v-2h2v-1h-2Zm31.02686,0h-1v2h-2v1h2v2h1v-2h2v-1h-2Zm31.02734,2v-2h-1v2h-2v1h2v2h1v-2h2v-1ZM27.93213,41.98633h-1v2h-2v1h2v2h1v-2h2v-1h-2Zm31.02734,0h-1v2h-2v1h2v2h1v-2h2v-1h-2Zm124.1084,0h-1v2h-2v1h2v2h1v-2h2v-1h-2Zm0,31.02734h-1v2h-2v1h2v2h1v-2h2v-1h-2Zm-155.13574,0h-1v2h-2v1h2v2h1v-2h2v-1h-2Zm0,31.02734h-1v2h-2v1h2v2h1v-2h2v-1h-2Zm31.02734,0h-1v2h-2v1h2v2h1v-2h2v-1h-2Zm124.1084,0h-1v2h-2v1h2v2h1v-2h2v-1h-2ZM86.44336,29.53223V43.79657h6V35.53223h67.18848V104.541H92.44336V84.5816h-6v3.558H59.436V63.10156H71.594v-6H53.436V94.13965H86.44336V110.541h79.18848V29.53223Z"/>
    <path id="shape-lime" class="cls-2" d="M103.385,43.79657H71.594V75.58765a8.99388,8.99388,0,0,0,8.994,8.994h31.791V52.79053A8.99388,8.99388,0,0,0,103.385,43.79657ZM81.181,75.26941a1.53661,1.53661,0,1,1,.18066-1.16461A1.62008,1.62008,0,0,1,81.181,75.26941Zm0-10.34845a1.53661,1.53661,0,1,1,.18066-1.16461A1.61983,1.61983,0,0,1,81.181,64.921Zm0-10.34839a1.53664,1.53664,0,1,1,.18066-1.16467A1.62,1.62,0,0,1,81.181,54.57257Zm4.7348,21.4408a1.4778,1.4778,0,0,1-.78351-.22021,1.53672,1.53672,0,1,1,.78351.22021Zm0-10.34845a1.47725,1.47725,0,0,1-.78351-.22021,1.53672,1.53672,0,1,1,.78351.22021Zm0-10.34845a1.47725,1.47725,0,0,1-.78351-.22021,1.53672,1.53672,0,1,1,.78351.22021Zm6.06024,20.75739a1.63108,1.63108,0,0,1-.78223-.21954,1.5376,1.5376,0,1,1,.78223.21954Zm0-10.34845a1.63171,1.63171,0,0,1-.78223-.21948,1.53768,1.53768,0,1,1,.78223.21948Zm0-10.34845a1.631,1.631,0,0,1-.78223-.21948,1.53768,1.53768,0,1,1,.78223.21948ZM98.0376,76.135a1.631,1.631,0,0,1-.78223-.21948,1.53667,1.53667,0,1,1,.78223.21948Zm0-10.34845a1.631,1.631,0,0,1-.78223-.21948,1.53667,1.53667,0,1,1,.78223.21948Zm0-10.34839a1.63108,1.63108,0,0,1-.78223-.21954,1.53659,1.53659,0,1,1,.78223.21954Zm7.38794,19.83124a1.53661,1.53661,0,1,1,.18066-1.16461A1.62008,1.62008,0,0,1,105.42554,75.26941Zm0-10.34845a1.53661,1.53661,0,1,1,.18066-1.16461A1.61983,1.61983,0,0,1,105.42554,64.921Zm0-10.34839a1.53664,1.53664,0,1,1,.18066-1.16467A1.62,1.62,0,0,1,105.42554,54.57257Z"/>
  </g>
</svg>
