<svg xmlns="http://www.w3.org/2000/svg" viewBox="0 0 210 120">
  <defs>
    <style>
      .cls-1 {
        fill: #d1d3d4;
      }

      .cls-2 {
        fill: #bfd730;
      }
    </style>
  </defs>
  <title>illustration-form-elements</title>
  <g id="form-elements">
    <path id="grid" class="cls-1" d="M174.14323,103.84306a1.5366,1.5366,0,0,1-2.85314.80291,1.63146,1.63146,0,0,1-.21951-.78224,1.53636,1.53636,0,1,1,3.07265-.02067Zm-1.5465-32.55358a1.54383,1.54383,0,0,0-1.52616,1.54717,1.63146,1.63146,0,0,0,.21951.78224,1.53671,1.53671,0,1,0,1.30665-2.32941Zm-31.02708,0a1.54383,1.54383,0,0,0-1.52616,1.54717,1.63146,1.63146,0,0,0,.21951.78224,1.53671,1.53671,0,1,0,1.30665-2.32941ZM110.54257,9.23531a1.54383,1.54383,0,0,0-1.52616,1.54717,1.63146,1.63146,0,0,0,.21951.78224,1.53671,1.53671,0,1,0,1.30665-2.32941ZM79.51549,71.28948a1.54383,1.54383,0,0,0-1.52616,1.54717,1.63146,1.63146,0,0,0,.21951.78224,1.53671,1.53671,0,1,0,1.30665-2.32941Zm0-62.05416a1.54383,1.54383,0,0,0-1.52616,1.54717,1.63146,1.63146,0,0,0,.21951.78224,1.53671,1.53671,0,1,0,1.30665-2.32941ZM48.39288,71.28948a1.54383,1.54383,0,0,0-1.52616,1.54717,1.63146,1.63146,0,0,0,.21951.78224,1.53671,1.53671,0,1,0,1.30665-2.32941Zm0-62.05416a1.54383,1.54383,0,0,0-1.52616,1.54717,1.63146,1.63146,0,0,0,.21951.78224,1.53671,1.53671,0,1,0,1.30665-2.32941Zm125.75147,3.72837V8.58074H134.69792v4.38294ZM48.403,59.70279a17.90348,17.90348,0,0,0,17.9035-17.9035H62.328A13.92494,13.92494,0,1,1,48.403,27.87435V23.89579a17.9035,17.9035,0,0,0,0,35.807ZM79.46573,40.25971a1.53711,1.53711,0,0,0-.80291,2.85314,1.47753,1.47753,0,0,0,.7835.22018,1.53669,1.53669,0,0,0,.01941-3.07333Zm25.24574-.0156a1.53711,1.53711,0,0,0-.80291,2.85314,1.47753,1.47753,0,0,0,.7835.22018,1.53669,1.53669,0,0,0,.01941-3.07333Zm6.06152,0a1.5366,1.5366,0,0,0-.80291,2.85314,1.63146,1.63146,0,0,0,.78224.21951,1.53636,1.53636,0,1,0,.02067-3.07265Zm6.10335,0a1.5366,1.5366,0,0,0-.80291,2.85314,1.63146,1.63146,0,0,0,.78224.21951,1.53636,1.53636,0,1,0,.02067-3.07265Zm18.56159,0a1.53711,1.53711,0,0,0-.80291,2.85314,1.47753,1.47753,0,0,0,.7835.22018,1.53669,1.53669,0,0,0,.01941-3.07333Zm6.06152,0a1.5366,1.5366,0,0,0-.80291,2.85314,1.63146,1.63146,0,0,0,.78224.21951,1.53636,1.53636,0,1,0,.02067-3.07265Zm6.10335,0a1.5366,1.5366,0,0,0-.80291,2.85314,1.63146,1.63146,0,0,0,.78224.21951,1.53636,1.53636,0,1,0,.02067-3.07265Zm6.10336.01558a1.5366,1.5366,0,0,0-.80291,2.85314,1.63146,1.63146,0,0,0,.78224.21951,1.53636,1.53636,0,1,0,.02067-3.07265Zm6.06148,0a1.5366,1.5366,0,0,0-.80291,2.85314,1.63146,1.63146,0,0,0,.78224.21951,1.53636,1.53636,0,1,0,.02067-3.07265Zm6.06148,0a1.5366,1.5366,0,0,0-.80291,2.85314,1.63146,1.63146,0,0,0,.78224.21951,1.53636,1.53636,0,1,0,.02067-3.07265Zm6.06148,0a1.5366,1.5366,0,0,0-.80291,2.85314,1.63146,1.63146,0,0,0,.78224.21951,1.53636,1.53636,0,1,0,.02067-3.07265Zm6.08333,0a1.5366,1.5366,0,0,0-.80291,2.85314,1.63146,1.63146,0,0,0,.78224.21951,1.53636,1.53636,0,1,0,.02067-3.07265ZM118.32838,65.26058H103.19679V80.39217h15.13159Zm30.72646,31.02708H133.92325v15.13159h15.13159Z"/>
    <rect id="shape-lime" class="cls-2" x="39.41781" y="32.81405" width="17.97048" height="17.97048" rx="8.98523" ry="8.98523"/>
  </g>
</svg>
