<svg xmlns="http://www.w3.org/2000/svg" viewBox="0 0 210 120">
  <defs>
    <style>
      .cls-1 {
        isolation: isolate;
      }

      .cls-2, .cls-3 {
        fill: #d1d3d4;
      }

      .cls-3 {
        opacity: 0.8;
      }

      .cls-3, .cls-4 {
        mix-blend-mode: multiply;
      }

      .cls-4 {
        fill: #bfd731;
      }
    </style>
  </defs>
  <title>illustration-colors</title>
  <g class="cls-1">
    <g id="colors">
      <path id="grid" class="cls-2" d="M40.27554,47.94945a1.54383,1.54383,0,0,1-.01486,2.17317,1.63146,1.63146,0,0,1-.70835.39791,1.53671,1.53671,0,1,1,.7232-2.57108Zm19.76653-21.9536a1.5366,1.5366,0,0,0,1.44973,2.58522,1.63146,1.63146,0,0,0,.70835-.39791,1.53636,1.53636,0,1,0-2.15808-2.18731ZM81.98153,4.05638A1.5366,1.5366,0,0,0,83.43126,6.6416a1.63146,1.63146,0,0,0,.70835-.39791,1.53636,1.53636,0,1,0-2.15808-2.18731ZM60.04207,69.87476A1.5366,1.5366,0,0,0,61.4918,72.46a1.63146,1.63146,0,0,0,.70835-.39791,1.53636,1.53636,0,1,0-2.15808-2.18731ZM81.98153,47.9353a1.5366,1.5366,0,0,0,1.44973,2.58522,1.63146,1.63146,0,0,0,.70835-.39791,1.53636,1.53636,0,1,0-2.15808-2.18731ZM103.921,25.99584a1.5366,1.5366,0,0,0,1.44973,2.58522,1.63146,1.63146,0,0,0,.70835-.39791,1.53636,1.53636,0,1,0-2.15808-2.18731ZM81.98153,91.81422a1.5366,1.5366,0,0,0,1.44973,2.58522,1.63146,1.63146,0,0,0,.70835-.39791,1.53636,1.53636,0,1,0-2.15808-2.18731Zm43.87892,0a1.5366,1.5366,0,0,0,1.44973,2.58522,1.63146,1.63146,0,0,0,.70835-.39791,1.53636,1.53636,0,1,0-2.15808-2.18731Zm21.93946-21.93946A1.5366,1.5366,0,0,0,149.24964,72.46a1.63146,1.63146,0,0,0,.70835-.39791,1.53636,1.53636,0,1,0-2.15808-2.18731Zm0,43.87892a1.5366,1.5366,0,0,0,1.44973,2.58522,1.63146,1.63146,0,0,0,.70835-.39791,1.53636,1.53636,0,1,0-2.15808-2.18731Zm21.93946-21.93946a1.5366,1.5366,0,0,0,1.44973,2.58522,1.63146,1.63146,0,0,0,.70835-.39791,1.53636,1.53636,0,1,0-2.15808-2.18731Z"/>
      <g id="rounded-box-grey">
        <path class="cls-3" d="M120.689,47.30391H100.70911A7.8606,7.8606,0,0,0,92.943,54.03713l-.11592.02768V75.16588a7.88223,7.88223,0,0,0,7.882,7.88262h27.86255v-27.862A7.88235,7.88235,0,0,0,120.689,47.30391Z"/>
      </g>
      <g id="rounded-box-grey-2" data-name="rounded-box-grey">
        <path class="cls-3" d="M136.85648,31.13647H116.87655a7.8606,7.8606,0,0,0-7.76613,6.73322l-.11592.02768V58.99844a7.88223,7.88223,0,0,0,7.882,7.88262h27.86255v-27.862A7.88235,7.88235,0,0,0,136.85648,31.13647Z"/>
      </g>
      <g id="rounded-box-lime">
        <path class="cls-4" d="M153.02392,14.969H133.044a7.8606,7.8606,0,0,0-7.76613,6.73322l-.11592.02768V42.831a7.88223,7.88223,0,0,0,7.882,7.88262h27.86255v-27.862A7.88235,7.88235,0,0,0,153.02392,14.969Z"/>
      </g>
    </g>
  </g>
</svg>
