<svg xmlns="http://www.w3.org/2000/svg" viewBox="0 0 210 120">
  <defs>
    <style>
      .cls-1 {
        fill: #bfd731;
      }

      .cls-2 {
        fill: #d1d2d4;
      }
    </style>
  </defs>
  <title>illustration-typography</title>
  <g id="typography">
    <path id="letter" class="cls-1" d="M147.5654,44.78347h6.96875l11.55859,30.9082h-7.05566l-2.33789-6.88281H145.1406l-2.42383,6.88281H135.834Zm-.64941,18.96h8.00781l-3.89551-11.3418h-.08691Zm32.6658-38.77052a1.75928,1.75928,0,0,0-1.73814,1.507l-.02594.0062V31.2087a1.76412,1.76412,0,0,0,1.76408,1.76421h6.23592V26.73712a1.76415,1.76415,0,0,0-1.76421-1.76421Z"/>
    <path id="grid" class="cls-2" d="M151.29053,28.47314h2v1h-2v2h-1v-2h-2v-1h2v-2h1Zm-62.0542-2h-1v2h-2v1h2v2h1v-2h2v-1h-2Zm-31.02686,0h-1v2h-2v1h2v2h1v-2h2v-1h-2Zm-31.02734,0h-1v2h-2v1h2v2h1v-2h2v-1h-2Zm0,31.02686h-1v2h-2v1h2v2h1v-2h2v-1h-2Zm31.02734,0h-1v2h-2v1h2v2h1v-2h2v-1h-2Zm31.02686,0h-1v2h-2v1h2v2h1v-2h2v-1h-2Zm30.02734,0v2h-2v1h2v2h1v-2h2v-1h-2v-2Zm62.0542,5h1v-2h2v-1h-2v-2h-1v2h-2v1h2ZM27.18213,88.52686h-1v2h-2v1h2v2h1v-2h2v-1h-2Zm31.02734,0h-1v2h-2v1h2v2h1v-2h2v-1h-2Zm31.02686,0h-1v2h-2v1h2v2h1v-2h2v-1h-2Zm62.0542,0h-1v2h-2v1h2v2h1v-2h2v-1h-2Zm-29.2912-63.554h-4.47168a1.75933,1.75933,0,0,0-1.73816,1.507l-.02594.00623v4.7226a1.7641,1.7641,0,0,0,1.7641,1.76422h6.2359V26.73712A1.76413,1.76413,0,0,0,121.99933,24.9729Zm0,62.0542h-4.47168a1.75927,1.75927,0,0,0-1.73816,1.507l-.02594.00616v4.72266a1.76414,1.76414,0,0,0,1.7641,1.76422h6.2359V88.79126A1.76411,1.76411,0,0,0,121.99933,87.0271Zm62.0542,0h-4.47174a1.75927,1.75927,0,0,0-1.73816,1.507l-.02594.00616v4.72266a1.76418,1.76418,0,0,0,1.7641,1.76422h6.2359V88.79126A1.7641,1.7641,0,0,0,184.05353,87.0271Z"/>
  </g>
</svg>
