<svg xmlns="http://www.w3.org/2000/svg" viewBox="0 0 210 120">
  <defs>
    <style>
      .cls-1 {
        fill: #d1d3d4;
      }

      .cls-2 {
        fill: #bfd731;
      }
    </style>
  </defs>
  <title>illustration-icons</title>
  <g id="icons">
    <path id="grid" class="cls-1" d="M167.01934,66.7771l7.566,4.36823v8.73645l-7.566,4.36823-7.566-4.36823V71.14532Zm30.52753-50.81763h1v-2h2v-1h-2v-2h-1v2h-2v1h2Zm-31.02734,0h1v-2h2v-1h-2v-2h-1v2h-2v1h2Zm-30.02734-5h-1v2h-2v1h2v2h1v-2h2v-1h-2Zm-32.02734,5h1v-2h2v-1h-2v-2h-1v2h-2v1h2Zm-31.02637,0h1v-2h2v-1h-2v-2h-1v2h-2v1h2Zm-27.52734-5h-1v2h-2v1h2v2h1v-2h2v-1h-2Zm-33.52734,0h-1v2h-2v1h2v2h1v-2h2v-1h-2Zm124.1084,31.02686h-1v2h-2v1h2v2h1v-2h2v-1h-2Zm30.02734,5h1v-2h2v-1h-2v-2h-1v2h-2v1h2Zm31.02734,0h1v-2h2v-1h-2v-2h-1v2h-2v1h2ZM74.43847,73.01367h-1v2h-2v1h2v2h1v-2h2v-1h-2Zm31.02637,0h-1v2h-2v1h2v2h1v-2h2v-1h-2Zm31.02734,0h-1v2h-2v1h2v2h1v-2h2v-1h-2Zm62.05469,31.02686h-1v2h-2v1h2v2h1v-2h2v-1h-2Zm-31.02734,0h-1v2h-2v1h2v2h1v-2h2v-1h-2Zm-31.02734,0h-1v2h-2v1h2v2h1v-2h2v-1h-2Zm-31.02734,0h-1v2h-2v1h2v2h1v-2h2v-1h-2Zm-31.02637,0h-1v2h-2v1h2v2h1v-2h2v-1h-2Zm-31.02734,0h-1v2h-2v1h2v2h1v-2h2v-1h-2Zm-31.02734,0h-1v2h-2v1h2v2h1v-2h2v-1h-2Zm65.5304-67.12h-8.458a3.32759,3.32759,0,0,0-3.2876,2.85034l-.04907.01172v8.93262a3.33675,3.33675,0,0,0,3.33667,3.33691h8.45825a3.32643,3.32643,0,0,0,3.29169-2.89062l.045-.011V40.25745A3.3368,3.3368,0,0,0,77.91418,36.92053ZM94.2655,44.48645,104.96514,55.1861l10.69965-10.69965L104.96514,33.7868ZM198.04638,67.94751a7.566,7.566,0,1,0,7.566,7.566A7.566,7.566,0,0,0,198.04638,67.94751Z"/>
    <path id="shape-lime" class="cls-2" d="M39.96488,36.92054H14.45227A10.0373,10.0373,0,0,0,4.5356,45.51827l-.148.03535V72.49785A10.06491,10.06491,0,0,0,14.45227,82.56327h35.578V46.986A10.06507,10.06507,0,0,0,39.96488,36.92054Z"/>
  </g>
</svg>
