<svg width="21px" height="21px" viewBox="0 0 21 21" version="1.1" xmlns="http://www.w3.org/2000/svg" xmlns:xlink="http://www.w3.org/1999/xlink">
    <g stroke="none" stroke-width="1" fill="none" fill-rule="evenodd">
        <g transform="translate(-267.000000, -30.000000)" stroke="#FFFFFF" stroke-width="1.5">
            <g transform="translate(268.000000, 31.000000)">
                <path d="M13.8603,17.0995 L13.7923,13.9805 C13.7923,11.4165 11.7143,9.3385 9.1503,9.3385 C6.5863,9.3385 4.5073,11.4165 4.5073,13.9805 L4.5003,17.0995" id="Stroke-1"></path>
                <path d="M11.7978,6.6386 C11.7978,8.0946 10.6178,9.2736 9.1628,9.2736 C7.7078,9.2736 6.5278,8.0946 6.5278,6.6386 C6.5278,5.1836 7.7078,4.0036 9.1628,4.0036 C10.6178,4.0036 11.7978,5.1836 11.7978,6.6386 Z" id="Stroke-3"></path>
                <path d="M18.54,9.27 C18.54,14.389 14.39,18.54 9.27,18.54 C4.15,18.54 4.36983782e-13,14.389 4.36983782e-13,9.27 C4.36983782e-13,4.15 4.15,-1.77635684e-14 9.27,-1.77635684e-14 C14.39,-1.77635684e-14 18.54,4.15 18.54,9.27 Z" id="Stroke-5"></path>
            </g>
        </g>
    </g>
</svg>
