<svg width="91" height="97" viewBox="0 0 91 97" fill="none" xmlns="http://www.w3.org/2000/svg">
<g clip-path="url(#clip0_51_801)">
<path d="M45.3547 0L0 15.9614L7.16714 75.3837L45.4026 96.3985L83.8356 75.0989L91 15.6789L45.3547 0Z" fill="#B3B3B3"/>
<path d="M86.4765 19.1129L45.2488 5.0542V91.3776L79.799 72.2558L86.4757 19.1129H86.4765Z" fill="#3E3E3E"/>
<path d="M5.08936 19.3664L11.2311 72.5101L45.248 91.3776V5.05261L5.08974 19.366L5.08936 19.3664Z" fill="#555555"/>
<path d="M56.5974 51.0083L45.2487 56.3153H33.2875L27.6648 70.379L17.2067 70.5723L45.2487 8.18866L56.5974 51.0083ZM55.5005 48.3361L45.3245 28.1905L36.977 47.9894H45.2483L55.5001 48.3365L55.5005 48.3361Z" fill="#F2F2F2"/>
<path d="M45.2484 8.18866L45.3234 28.1909L54.7944 48.0053H45.2697L45.248 56.3025L58.419 56.3149L64.5747 70.5742L74.5814 70.7597L45.2484 8.18866Z" fill="#B3B3B3"/>
</g>
<defs>
<clipPath id="clip0_51_801">
<rect width="91" height="96.3985" fill="white"/>
</clipPath>
</defs>
</svg>
