<svg xmlns="http://www.w3.org/2000/svg" viewBox="0 0 1250 1047"><defs><filter id="a"><feColorMatrix in="SourceGraphic" values="0 0 0 0 0.227451 0 0 0 0 0.227451 0 0 0 0 0.290196 0 0 0 1.000000 0"/></filter><filter id="b"><feColorMatrix in="SourceGraphic" values="0 0 0 0 0.266667 0 0 0 0 0.266667 0 0 0 0 0.309804 0 0 0 1.000000 0"/></filter><filter id="c"><feColorMatrix in="SourceGraphic" values="0 0 0 0 0.266667 0 0 0 0 0.266667 0 0 0 0 0.309804 0 0 0 1.000000 0"/></filter><filter id="d"><feColorMatrix in="SourceGraphic" values="0 0 0 0 0.266667 0 0 0 0 0.266667 0 0 0 0 0.309804 0 0 0 1.000000 0"/></filter><filter id="e"><feColorMatrix in="SourceGraphic" values="0 0 0 0 0.266667 0 0 0 0 0.266667 0 0 0 0 0.309804 0 0 0 1.000000 0"/></filter><filter id="f"><feColorMatrix in="SourceGraphic" values="0 0 0 0 0.266667 0 0 0 0 0.266667 0 0 0 0 0.309804 0 0 0 1.000000 0"/></filter><filter id="g"><feColorMatrix in="SourceGraphic" values="0 0 0 0 0.266667 0 0 0 0 0.266667 0 0 0 0 0.309804 0 0 0 1.000000 0"/></filter><filter id="h"><feColorMatrix in="SourceGraphic" values="0 0 0 0 0.266667 0 0 0 0 0.266667 0 0 0 0 0.309804 0 0 0 1.000000 0"/></filter><filter id="i"><feColorMatrix in="SourceGraphic" values="0 0 0 0 0.266667 0 0 0 0 0.266667 0 0 0 0 0.309804 0 0 0 1.000000 0"/></filter><filter id="j"><feColorMatrix in="SourceGraphic" values="0 0 0 0 0.266667 0 0 0 0 0.266667 0 0 0 0 0.309804 0 0 0 1.000000 0"/></filter><filter id="k"><feColorMatrix in="SourceGraphic" values="0 0 0 0 0.266667 0 0 0 0 0.266667 0 0 0 0 0.309804 0 0 0 1.000000 0"/></filter><filter id="l"><feColorMatrix in="SourceGraphic" values="0 0 0 0 0.266667 0 0 0 0 0.266667 0 0 0 0 0.309804 0 0 0 1.000000 0"/></filter><filter id="m"><feColorMatrix in="SourceGraphic" values="0 0 0 0 0.266667 0 0 0 0 0.266667 0 0 0 0 0.309804 0 0 0 1.000000 0"/></filter><filter id="n"><feColorMatrix in="SourceGraphic" values="0 0 0 0 0.266667 0 0 0 0 0.266667 0 0 0 0 0.309804 0 0 0 1.000000 0"/></filter><filter id="o"><feColorMatrix in="SourceGraphic" values="0 0 0 0 0.266667 0 0 0 0 0.266667 0 0 0 0 0.309804 0 0 0 1.000000 0"/></filter><filter id="p"><feColorMatrix in="SourceGraphic" values="0 0 0 0 0.266667 0 0 0 0 0.266667 0 0 0 0 0.309804 0 0 0 1.000000 0"/></filter><filter id="q"><feColorMatrix in="SourceGraphic" values="0 0 0 0 0.454902 0 0 0 0 0.454902 0 0 0 0 0.501961 0 0 0 1.000000 0"/></filter><filter id="r"><feColorMatrix in="SourceGraphic" values="0 0 0 0 1.000000 0 0 0 0 0.901961 0 0 0 0 0.000000 0 0 0 1.000000 0"/></filter><filter id="s"><feColorMatrix in="SourceGraphic" values="0 0 0 0 1.000000 0 0 0 0 0.901961 0 0 0 0 0.000000 0 0 0 1.000000 0"/></filter><filter id="t"><feColorMatrix in="SourceGraphic" values="0 0 0 0 0.454902 0 0 0 0 0.454902 0 0 0 0 0.501961 0 0 0 1.000000 0"/></filter><filter id="u"><feColorMatrix in="SourceGraphic" values="0 0 0 0 0.454902 0 0 0 0 0.454902 0 0 0 0 0.501961 0 0 0 1.000000 0"/></filter><filter id="v"><feColorMatrix in="SourceGraphic" values="0 0 0 0 0.454902 0 0 0 0 0.454902 0 0 0 0 0.501961 0 0 0 1.000000 0"/></filter></defs><g fill="none" fill-rule="evenodd"><g filter="url(#a)" transform="translate(1 1)"><g filter="url(#b)"><path stroke="#2E2E38" d="M227.498 588L114 653.75v130.32L227 849l114-65.75V652.324z"/><path stroke="#FFF" d="M303 719v-86.397l-37.657 21.603L190 611v43.215l75.343 43.19M265.5 653v86M189 653l-75 43.074 37.708 21.678V803L189 782.261V696.29M152 718l75-43"/><path stroke="#FFF" d="M189 782.788L265.04 826v-43.212L341 739.58 303.023 718l-76.004 43.249M264 784l-75-43"/></g><g filter="url(#c)"><path stroke="#2E2E38" d="M113.498 784L0 849.75v130.32L113 1045l114-65.75V848.324z"/><path stroke="#FFF" d="M189 915v-86.397l-37.657 21.603L76 807v43.215l75.343 43.19M151.5 849v86M75 849L0 892.074l37.708 21.678V999L75 978.261V892.29M38 914l75-43"/><path stroke="#FFF" d="M75 978.788L151.04 1022v-43.212L227 935.58 189.023 914l-76.004 43.249M150 980l-75-43"/></g><g filter="url(#d)"><path stroke="#2E2E38" d="M340.498 784L227 849.75v130.32L340 1045l114-65.75V848.324z"/><path stroke="#FFF" d="M416 915v-86.397l-37.657 21.603L303 807v43.215l75.343 43.19M378.5 849v86M302 849l-75 43.074 37.708 21.678V999L302 978.261V892.29M265 914l75-43"/><path stroke="#FFF" d="M302 978.788L378.04 1022v-43.212L454 935.58 416.023 914l-76.004 43.249M377 980l-75-43"/></g><g filter="url(#e)"><path stroke="#2E2E38" d="M566.498 784L453 849.75v130.32L566 1045l114-65.75V848.324z"/><path stroke="#FFF" d="M642 915v-86.397l-37.657 21.603L529 807v43.215l75.343 43.19M604.5 849v86M528 849l-75 43.074 37.708 21.678V999L528 978.261V892.29M491 914l75-43"/><path stroke="#FFF" d="M528 978.788L604.04 1022v-43.212L680 935.58 642.023 914l-76.004 43.249M603 980l-75-43"/></g><g filter="url(#f)"><path stroke="#2E2E38" d="M793.498 782L680 847.75v130.32L793 1043l114-65.75V846.324z"/><path stroke="#FFF" d="M869 913v-86.397l-37.657 21.603L756 805v43.215l75.343 43.19M831.5 847v86M755 847l-75 43.074 37.708 21.678V997L755 976.261V890.29M718 912l75-43"/><path stroke="#FFF" d="M755 976.788L831.04 1020v-43.212L907 933.58 869.023 912l-76.004 43.249M830 978l-75-43"/></g><g filter="url(#g)"><path stroke="#2E2E38" d="M1020.498 782L907 847.75v130.32l113 64.93 114-65.75V846.324z"/><path stroke="#FFF" d="M1096 913v-86.397l-37.657 21.603L983 805v43.215l75.343 43.19M1058.5 847v86M982 847l-75 43.074 37.708 21.678V997L982 976.261V890.29M945 912l75-43"/><path stroke="#FFF" d="M982 976.788l76.04 43.212v-43.212L1134 933.58 1096.023 912l-76.004 43.249M1057 978l-75-43"/></g><g filter="url(#h)"><path stroke="#2E2E38" d="M793.498 391L680 456.75v130.32L793 652l114-65.75V455.324z"/><path stroke="#FFF" d="M869 522v-86.397l-37.657 21.603L756 414v43.215l75.343 43.19M831.5 456v86M755 456l-75 43.074 37.708 21.678V606L755 585.261V499.29M718 521l75-43"/><path stroke="#FFF" d="M755 585.788L831.04 629v-43.212L907 542.58 869.023 521l-76.004 43.249M830 587l-75-43"/></g><g filter="url(#i)"><path stroke="#2E2E38" d="M1020.498 390L907 455.75v130.32L1020 651l114-65.75V454.324z"/><path stroke="#FFF" d="M1096 521v-86.397l-37.657 21.603L983 413v43.215l75.343 43.19M1058.5 455v86M982 455l-75 43.074 37.708 21.678V605L982 584.261V498.29M945 520l75-43"/><path stroke="#FFF" d="M982 584.788L1058.04 628v-43.212L1134 541.58 1096.023 520l-76.004 43.249M1057 586l-75-43"/></g><g filter="url(#j)"><path stroke="#2E2E38" d="M792.498 1L679 66.75v130.32L792 262l114-65.75V65.324z"/><path stroke="#FFF" d="M868 132V45.603l-37.657 21.603L755 24v43.215l75.343 43.19M830.5 66v86M754 66l-75 43.074 37.708 21.678V216L754 195.261V109.29M717 131l75-43"/><path stroke="#FFF" d="M754 195.788L830.04 239v-43.212L906 152.58 868.023 131l-76.004 43.249M829 197l-75-43"/></g><g filter="url(#k)"><path stroke="#2E2E38" d="M1019.498 0L906 65.75v130.32L1019 261l114-65.75V64.324z"/><path stroke="#FFF" d="M1095 131V44.603l-37.657 21.603L982 23v43.215l75.343 43.19M1057.5 65v86M981 65l-75 43.074 37.708 21.678V215L981 194.261V108.29M944 130l75-43"/><path stroke="#FFF" d="M981 194.788L1057.04 238v-43.212L1133 151.58 1095.023 130l-76.004 43.249M1056 196l-75-43"/></g><g filter="url(#l)"><path stroke="#2E2E38" d="M566.498 3L453 68.75v130.32L566 264l114-65.75V67.324z"/><path stroke="#FFF" d="M642 134V47.603l-37.657 21.603L529 26v43.215l75.343 43.19M604.5 68v86M528 68l-75 43.074 37.708 21.678V218L528 197.261V111.29M491 133l75-43"/><path stroke="#FFF" d="M528 197.788L604.04 241v-43.212L680 154.58 642.023 133l-76.004 43.249M603 199l-75-43"/></g><g filter="url(#m)"><path stroke="#2E2E38" d="M906.498 195L793 260.75v130.32L906 456l114-65.75V259.324z"/><path stroke="#FFF" d="M982 326v-86.397l-37.657 21.603L869 218v43.215l75.343 43.19M944.5 260v86M868 260l-75 43.074 37.708 21.678V410L868 389.261V303.29M831 325l75-43"/><path stroke="#FFF" d="M868 389.788L944.04 433v-43.212L1020 346.58 982.023 325l-76.004 43.249M943 391l-75-43"/></g><g filter="url(#n)"><path stroke="#2E2E38" d="M1133.498 194L1020 259.75v130.32L1133 455l114-65.75V258.324z"/><path stroke="#FFF" d="M1209 325v-86.397l-37.657 21.603L1096 217v43.215l75.343 43.19M1171.5 259v86M1095 259l-75 43.074 37.708 21.678V409L1095 388.261V302.29M1058 324l75-43"/><path stroke="#FFF" d="M1095 388.788L1171.04 432v-43.212L1247 345.58 1209.023 324l-76.004 43.249M1170 390l-75-43"/></g><g filter="url(#o)"><path stroke="#2E2E38" d="M906.498 586L793 651.75v130.32L906 847l114-65.75V650.324z"/><path stroke="#FFF" d="M982 717v-86.397l-37.657 21.603L869 609v43.215l75.343 43.19M944.5 651v86M868 651l-75 43.074 37.708 21.678V801L868 780.261V694.29M831 716l75-43"/><path stroke="#FFF" d="M868 780.788L944.04 824v-43.212L1020 737.58 982.023 716l-76.004 43.249M943 782l-75-43"/></g><g filter="url(#p)"><path stroke="#2E2E38" d="M1133.498 585L1020 650.75v130.32L1133 846l114-65.75V649.324z"/><path stroke="#FFF" d="M1209 716v-86.397l-37.657 21.603L1096 608v43.215l75.343 43.19M1171.5 650v86M1095 650l-75 43.074 37.708 21.678V800L1095 779.261V693.29M1058 715l75-43"/><path stroke="#FFF" d="M1095 779.788L1171.04 823v-43.212L1247 736.58 1209.023 715l-76.004 43.249M1170 781l-75-43"/></g></g><g filter="url(#q)" transform="translate(171 166)"><path stroke="#FF8733" stroke-width="2" stroke-linecap="round" stroke-linejoin="round" d="M283.718 291.987l112.44-64.938-.214-129.5-112.653-64.562-112.438 64.938.213 129.5z"/><g stroke="#FF8733" stroke-dasharray="1.5,3" stroke-width="1.5"><path d="M395.49 97.015L171.865 226.59M358.502 76.016L171.521 183.445M395.481 141.993l-186.98 107.429M321.746 54.97l-150.473 87.48M395.503 184.043l-149.98 86.626"/></g><g stroke="#FF8733" stroke-dasharray="1.5,3" stroke-width="1.5"><path d="M283.293 32.578l1.009 258.477M246.117 54.18l.218 215.567M321.822 55.156l.219 215.567M209.063 76.436l.965 172.58M358.29 76.196l.591 173.126"/></g><g stroke="#FF8733" stroke-dasharray="1.5,3" stroke-width="1.5"><path d="M171.016 98.428L395.042 226.39M171.327 140.866l186.524 107.257M209.97 75.996l186.523 107.256M172.074 183.947l149.723 85.187M246.371 55l150.01 85.781"/></g><g filter="url(#r)" transform="translate(203.016 72)"><g fill="#57E188"><g transform="translate(76.525)"><ellipse cx="3.975" cy="3.913" rx="3.975" ry="3.913"/><ellipse cx="3.975" cy="47.192" rx="3.975" ry="3.913"/><ellipse cx="3.975" cy="91.454" rx="3.975" ry="3.913"/><ellipse cx="3.975" cy="133.749" rx="3.975" ry="3.913"/><ellipse cx="3.975" cy="176.045" rx="3.975" ry="3.913"/></g><g transform="translate(114.288 21.64)"><ellipse cx="3.975" cy="3.913" rx="3.975" ry="3.913"/><ellipse cx="3.975" cy="47.192" rx="3.975" ry="3.913"/><ellipse cx="3.975" cy="90.471" rx="3.975" ry="3.913"/><ellipse cx="3.975" cy="132.766" rx="3.975" ry="3.913"/></g><g transform="translate(152.05 43.279)"><ellipse cx="3.975" cy="3.913" rx="3.975" ry="3.913"/><ellipse cx="3.975" cy="48.176" rx="3.975" ry="3.913"/><ellipse cx="3.975" cy="90.471" rx="3.975" ry="3.913"/></g></g></g><g filter="url(#s)" transform="translate(203.016 72)"><g fill="#57E188"><g transform="matrix(-1 0 0 1 46.712 21.64)"><ellipse cx="3.975" cy="3.913" rx="3.975" ry="3.913"/><ellipse cx="3.975" cy="47.192" rx="3.975" ry="3.913"/><ellipse cx="3.975" cy="90.471" rx="3.975" ry="3.913"/><ellipse cx="3.975" cy="132.766" rx="3.975" ry="3.913"/></g><g transform="matrix(-1 0 0 1 8.95 43.279)"><ellipse cx="3.975" cy="3.913" rx="3.975" ry="3.913"/><ellipse cx="3.975" cy="48.176" rx="3.975" ry="3.913"/><ellipse cx="3.975" cy="90.471" rx="3.975" ry="3.913"/></g></g></g></g><g filter="url(#t)" stroke-linecap="round" stroke-linejoin="round" transform="translate(171 166)"><g stroke="#FF8733" stroke-width="2"><path d="M322 574.187l-.073-43.499-38-21.688L246 530.813l.073 43.499 38 21.688z"/><path d="M397 617.524l-.216-130.575L284.5 422 171 487.324l.216 130.575 113 65.101zM284 553l113-66M284.5 683V553M171 487l113 66"/></g></g><g filter="url(#u)" transform="translate(171 166)"><g stroke="#57E188" stroke-width="1.5"><path stroke-linecap="round" stroke-linejoin="round" d="M282.68 421.732l-.12-129.834-112.595-64.648L57.49 292.438l.12 129.834 112.596 64.647z"/><path d="M57.084 292.306l225.662 129.86M131.385 334.97l38.59-22.7 112.991 65.245"/><path d="M94.487 314.468l75.603-44.157 111.813 64.771M207.1 379.015l-36.823 21.26-113.207-65.12"/><path d="M244.774 400.092l-74.493 43.44-113.197-65.127"/></g></g><g filter="url(#v)" stroke-linecap="round" stroke-linejoin="round" transform="translate(171 166)"><g stroke="#FF8733" stroke-width="2"><path d="M509.054 291.987l112.439-64.938-.213-129.5-112.653-64.562-112.439 64.938.214 129.5zM397.054 486.958l112.439-64.938-.213-129.5-112.653-64.562-112.439 64.938.214 129.5zM509.054 681.987l112.439-64.938-.213-129.5-112.653-64.562-112.439 64.938.214 129.5z"/></g></g></g></svg>