<svg xmlns='http://www.w3.org/2000/svg'  width='1920' height='1080' viewBox='0 0 1920 1080'><rect fill='none' width='1245' height='1047'/>
<g fill='none' stroke='#fafafa'  stroke-width='1'>
<path d="M1661.38 -69.269C1680.77 -64.073 1703.26 -51.346 1723.72 -36.5635C1744.18 -21.7845 1762.55 -4.9857 1773.72 8.31171C1787.51 24.7395 1792.2 51.4489 1792.07 79.1451C1791.95 106.815 1787.01 135.346 1781.66 155.303C1776.65 174.002 1763.97 189.214 1749.17 201.499C1734.37 213.782 1717.5 223.108 1704.17 230.05C1699.05 232.719 1693.54 236.175 1687.68 239.855C1686.54 240.573 1685.38 241.3 1684.21 242.03C1677.03 246.514 1669.33 251.174 1661.09 255.087C1644.62 262.91 1626.06 267.73 1605.34 262.18C1551.37 247.718 1499.5 204.231 1480.22 162.518C1474.29 149.686 1468.57 132.937 1465.25 115.974C1461.93 99.0023 1461.02 81.8685 1464.67 68.2406C1469.43 50.4883 1478.49 31.0834 1489.39 14.3102C1500.3 -2.4722 1513.01 -16.5666 1525.05 -23.7497C1526.24 -24.4641 1527.54 -25.2424 1528.92 -26.0755C1541.95 -33.906 1563.03 -46.5743 1586.09 -56.5191C1611.62 -67.5332 1639.44 -75.1473 1661.38 -69.269Z" stroke="#888888" stroke-opacity="0.16"/>
<path d="M1665.26 -110.223C1688.81 -103.915 1716.1 -88.4686 1740.92 -70.5341C1765.74 -52.6032 1788.04 -32.2201 1801.59 -16.0819C1818.37 3.90849 1827.57 34.5083 1830.94 66.2185C1834.3 97.9179 1831.83 130.644 1825.35 154.825C1819.26 177.584 1805.26 200.853 1788.72 220.544C1772.19 240.236 1753.17 256.306 1737.07 264.692C1722.29 272.39 1699.93 282.61 1674.96 289.212C1649.99 295.816 1622.43 298.788 1597.23 292.036C1531.74 274.486 1468.8 221.717 1445.39 171.086C1431 139.969 1425.89 91.8754 1434.79 58.676C1440.57 37.1016 1449.51 13.0364 1460.68 -7.82062C1471.85 -28.6934 1485.22 -46.285 1499.81 -54.9959C1501.26 -55.8625 1502.83 -56.8066 1504.51 -57.8172C1520.32 -67.3155 1545.89 -82.686 1573.86 -94.7521C1604.84 -108.113 1638.61 -117.364 1665.26 -110.223Z" stroke="#888888" stroke-opacity="0.16"/>
<path d="M1670.28 -133.786C1697.65 -126.45 1729.21 -111.095 1757.86 -92.8701C1786.52 -74.6445 1812.24 -53.5755 1827.98 -34.8371C1847.49 -11.5985 1858.18 23.9649 1862.09 60.8061C1866 97.6366 1863.13 135.662 1855.6 163.761C1848.51 190.212 1832.24 217.252 1813.03 240.131C1793.83 263.011 1771.72 281.686 1753.01 291.432C1735.83 300.376 1709.86 312.251 1680.85 319.922C1651.83 327.594 1619.81 331.049 1590.52 323.201C1552.45 313.001 1512.04 295.423 1477.75 273.035C1443.44 250.641 1415.31 223.466 1401.73 194.095C1393.4 176.072 1390.8 150.243 1391.6 124.036C1392.4 97.8438 1396.59 71.3467 1401.76 52.0324C1408.48 26.9668 1418.87 -0.993218 1431.84 -25.227C1444.83 -49.4765 1460.36 -69.9268 1477.33 -80.0569C1494.83 -90.5077 1527.55 -108.112 1563.68 -121.015C1599.82 -133.927 1639.27 -142.095 1670.28 -133.786Z" stroke="#888888" stroke-opacity="0.16"/>
<path d="M1866.77 -55.2475L1866.8 -55.2146L1866.83 -55.1869C1898.16 -28.7574 1910.77 14.6729 1913.39 59.541C1916.01 104.394 1908.64 150.575 1900.12 182.37C1892.12 212.238 1870.05 240.603 1844.63 264.285C1819.22 287.96 1790.51 306.907 1769.31 317.947C1749.9 328.057 1720.54 341.48 1687.74 350.151C1654.94 358.824 1618.74 362.732 1585.62 353.858C1499.54 330.794 1416.3 274.347 1385.57 207.867C1376.14 187.462 1371.24 159.123 1370.18 130.395C1369.12 101.672 1371.88 72.6189 1377.73 50.8059C1385.32 22.456 1395.7 -10.029 1409 -38.2993C1422.31 -66.5901 1438.5 -90.5713 1457.67 -102.02L1457.74 -102.062L1457.8 -102.125C1491.38 -141.507 1543.59 -159.563 1596.27 -165.401C1648.95 -171.239 1702.01 -164.851 1737.17 -155.429C1796.14 -139.628 1828.03 -101.531 1861.79 -61.1914C1863.45 -59.2147 1865.11 -57.2326 1866.77 -55.2475Z" stroke="#888888" stroke-opacity="0.16"/>
<path d="M1878.58 -67.0526L1878.61 -67.0196L1878.64 -66.992C1913.03 -37.9777 1929.49 12.2789 1934.99 64.0997C1940.5 115.903 1935.04 169.15 1925.7 204.013C1916.91 236.797 1891.25 270.988 1861.92 300.04C1832.6 329.084 1799.66 352.929 1776.42 365.035C1755.17 376.102 1721.16 386.381 1683.34 391.45C1645.52 396.518 1603.95 396.369 1567.57 386.621C1473.13 361.316 1381.8 299.382 1348.07 226.431C1337.72 204.037 1332.35 172.939 1331.18 141.419C1330.02 109.904 1333.05 78.0252 1339.47 54.0889C1347.8 22.9854 1359.19 -12.6564 1373.78 -43.6749C1388.38 -74.7139 1406.14 -101.035 1427.19 -113.602L1427.26 -113.645L1427.32 -113.707C1464.18 -156.946 1520.86 -181.41 1578.01 -192.471C1635.16 -203.532 1692.71 -201.175 1731.27 -190.844C1765.19 -181.756 1792.22 -162.477 1815.68 -139.628C1833.13 -122.627 1848.58 -103.674 1863.41 -85.4807C1868.52 -79.2108 1873.56 -73.0312 1878.58 -67.0526Z" stroke="#888888" stroke-opacity="0.16"/>
<path d="M1643.06 24.941C1651.27 27.1395 1660.81 32.5337 1669.5 38.818C1678.2 45.0986 1686 52.2337 1690.73 57.8717C1696.54 64.7821 1698.54 76.0616 1698.48 87.8369C1698.43 99.5857 1696.33 111.706 1694.06 120.182C1691.95 128.061 1686.6 134.489 1680.32 139.699C1674.05 144.907 1666.89 148.865 1661.22 151.819C1659.02 152.96 1656.67 154.439 1654.18 156.006C1653.69 156.311 1653.2 156.619 1652.7 156.929C1649.65 158.837 1646.38 160.813 1642.89 162.471C1635.91 165.785 1628.08 167.811 1619.36 165.472C1596.46 159.336 1574.45 140.878 1566.28 123.207C1563.77 117.764 1561.34 110.657 1559.93 103.46C1558.52 96.2538 1558.14 89.0106 1559.68 83.2709C1561.7 75.7481 1565.54 67.5156 1570.17 60.3968C1574.8 53.269 1580.18 47.3112 1585.25 44.2862C1585.76 43.9818 1586.31 43.6503 1586.9 43.2957C1592.45 39.9621 1601.41 34.5795 1611.2 30.3545C1622.06 25.6687 1633.82 22.4661 1643.06 24.941Z" stroke="#888888" stroke-opacity="0.16"/>
<path d="M1634.3 59.2036C1638.12 60.2261 1642.56 62.8281 1646.62 65.8997C1650.67 68.9668 1654.29 72.4643 1656.47 75.23C1659.1 78.5716 1659.96 84.1304 1659.84 90.0251C1659.72 95.8902 1658.64 101.961 1657.5 106.212C1656.45 110.117 1653.9 113.343 1650.91 115.985C1647.92 118.627 1644.52 120.657 1641.81 122.18C1640.76 122.775 1639.62 123.542 1638.43 124.346C1638.19 124.503 1637.96 124.661 1637.72 124.819C1636.26 125.799 1634.71 126.808 1633.06 127.659C1629.76 129.361 1626.11 130.408 1622.09 129.331C1611.37 126.46 1601.17 117.442 1597.47 108.729C1596.33 106.039 1595.25 102.515 1594.64 98.9394C1594.03 95.3551 1593.92 91.7669 1594.68 88.9249C1595.69 85.1646 1597.56 81.0298 1599.8 77.4424C1602.04 73.8451 1604.62 70.8525 1606.99 69.3257C1607.24 69.1688 1607.5 68.9982 1607.78 68.8158C1610.44 67.1007 1614.71 64.3415 1619.36 62.1543C1621.93 60.9449 1624.61 59.9179 1627.18 59.3394C1629.75 58.76 1632.19 58.6377 1634.3 59.2036Z" stroke="#888888" stroke-opacity="0.16"/>
<path d="M1654.54 -21.6385C1668.74 -17.831 1685.24 -8.50106 1700.25 2.34466C1715.25 13.1867 1728.73 25.5088 1736.92 35.2579C1747.01 47.2767 1750.45 66.8382 1750.36 87.1589C1750.26 107.453 1746.64 128.382 1742.72 143.02C1739.05 156.707 1729.77 167.85 1718.92 176.857C1708.07 185.863 1695.69 192.702 1685.91 197.796C1682.15 199.757 1678.1 202.297 1673.8 204.999C1672.96 205.525 1672.12 206.058 1671.26 206.594C1665.99 209.885 1660.34 213.301 1654.3 216.169C1642.23 221.904 1628.64 225.429 1613.48 221.367C1573.9 210.762 1535.87 178.87 1521.73 148.294C1517.38 138.885 1513.19 126.603 1510.75 114.164C1508.32 101.716 1507.66 89.1644 1510.33 79.1908C1513.81 66.1773 1520.46 51.9481 1528.45 39.6473C1536.45 27.3375 1545.77 17.0124 1554.58 11.7555C1555.46 11.2311 1556.41 10.6598 1557.42 10.0484C1566.99 4.30112 1582.45 -4.99212 1599.36 -12.2872C1618.1 -20.3696 1638.48 -25.9401 1654.54 -21.6385Z" stroke="#888888" stroke-opacity="0.16"/>
<path d="M547.831 -87.0503C578.169 -78.9214 613.332 -59.0196 645.299 -35.9217C677.262 -12.8276 705.984 13.4269 723.443 34.2188C745.057 59.9589 752.384 101.766 752.182 145.04C751.981 188.288 744.262 232.877 735.904 264.067C728.057 293.353 708.198 317.159 685.06 336.367C661.923 355.574 635.548 370.152 614.726 380.996C606.734 385.159 598.15 390.55 588.996 396.299C587.21 397.42 585.402 398.556 583.573 399.698C572.358 406.703 560.316 413.988 547.435 420.107C521.676 432.343 492.6 439.897 460.157 431.204C375.781 408.595 294.7 340.62 264.539 275.383C255.263 255.32 246.319 229.137 241.13 202.619C235.94 176.091 234.518 149.28 240.237 127.934C247.676 100.172 261.845 69.8355 278.886 43.6157C295.933 17.3868 315.82 -4.66898 334.666 -15.9206C336.535 -17.0363 338.558 -18.2519 340.723 -19.5531C361.075 -31.7836 394.018 -51.5807 430.044 -67.1221C469.93 -84.3282 513.465 -96.2588 547.831 -87.0503Z" stroke="#888888" stroke-opacity="0.16"/>
<path d="M553.899 -151.019C590.718 -141.154 633.383 -117.004 672.165 -88.9826C710.941 -60.9652 745.788 -29.1123 766.973 -3.88317C793.245 27.4033 807.622 75.2643 812.884 124.818C818.144 174.361 814.285 225.514 804.154 263.321C794.615 298.922 772.72 335.303 746.882 366.08C721.044 396.858 691.302 421.986 666.113 435.105C643.015 447.135 608.078 463.109 569.047 473.428C530.01 483.749 486.921 488.402 447.495 477.838C345.117 450.406 246.737 367.931 210.136 288.766C187.64 240.107 179.644 164.918 193.557 112.994C202.591 79.2784 216.568 41.6687 234.022 9.06874C251.483 -23.5469 272.388 -51.08 295.245 -64.726C297.511 -66.0792 299.965 -67.5536 302.591 -69.1319C327.278 -83.9675 367.245 -107.986 410.952 -126.841C459.336 -147.713 512.175 -162.199 553.899 -151.019Z" stroke="#888888" stroke-opacity="0.16"/>
<path d="M561.726 -187.824C604.529 -176.355 653.838 -152.356 698.613 -123.88C743.389 -95.4032 783.59 -62.4763 808.192 -33.178C838.724 3.18205 855.427 58.796 861.54 116.364C867.651 173.922 863.167 233.351 851.397 277.278C840.313 318.647 814.871 360.918 784.854 396.673C754.837 432.43 720.28 461.628 691.008 476.873C664.174 490.848 623.586 509.406 578.24 521.395C532.888 533.386 482.82 538.794 437.004 526.517C377.517 510.578 314.368 483.11 260.777 448.123C207.177 413.13 163.186 370.649 141.944 324.704C128.901 296.493 124.849 256.096 126.096 215.149C127.343 174.216 133.884 132.807 141.973 102.617C152.469 63.4483 168.707 19.7551 188.984 -18.1193C209.269 -56.0094 233.56 -88.0076 260.13 -103.87C287.483 -120.2 338.612 -147.706 395.056 -167.869C451.523 -188.04 513.209 -200.824 561.726 -187.824Z" stroke="#888888" stroke-opacity="0.16"/>
<path d="M868.791 -65.0583L868.818 -65.0253L868.851 -64.9977C917.866 -23.6417 937.571 44.2909 941.667 114.402C945.762 184.497 934.247 256.662 920.935 306.346C908.414 353.072 873.898 397.422 834.177 434.427C794.464 471.425 749.6 501.034 716.47 518.289C686.14 534.085 640.263 555.061 589.007 568.613C537.745 582.166 481.146 588.281 429.349 574.402C294.858 538.365 164.753 450.158 116.698 346.217C101.941 314.297 94.2957 269.99 92.6343 225.1C90.9732 180.215 95.296 134.806 104.434 100.701C116.302 56.4121 132.517 5.65378 153.296 -38.5247C174.086 -82.7238 199.404 -120.248 229.432 -138.175L229.503 -138.218L229.556 -138.28C282.071 -199.872 363.71 -228.091 446.032 -237.213C528.346 -246.335 611.259 -236.354 666.214 -221.629C758.412 -196.925 808.271 -137.356 861.001 -74.355C863.589 -71.2631 866.184 -68.163 868.791 -65.0583Z" stroke="#888888" stroke-opacity="0.16"/>
<path d="M887.23 -83.4981L887.258 -83.4652L887.291 -83.4375C941.086 -38.0476 966.812 40.5419 975.415 121.508C984.015 202.457 975.487 285.662 960.887 340.15C947.146 391.43 907.025 444.878 861.196 490.268C815.375 535.649 763.912 572.913 727.577 591.837C694.347 609.144 641.19 625.206 582.098 633.126C523.008 641.045 458.032 640.815 401.161 625.576C253.606 586.039 110.855 489.262 58.1261 375.212C41.9322 340.185 33.5445 291.569 31.7218 242.318C29.8992 193.073 34.642 143.249 44.6689 105.829C57.6886 57.2383 75.479 1.54919 98.2776 -46.9219C121.086 -95.4135 148.867 -136.592 181.824 -156.268L181.894 -156.31L181.948 -156.373C239.589 -223.977 328.179 -262.209 417.484 -279.492C506.788 -296.776 596.728 -293.095 656.995 -276.947C710.037 -262.735 752.307 -232.588 788.965 -196.88C816.239 -170.311 840.384 -140.69 863.55 -112.269C871.53 -102.478 879.394 -92.8298 887.23 -83.4981Z" stroke="#888888" stroke-opacity="0.16"/>
<path d="M519.219 60.1024C532.083 63.5494 547.018 71.9976 560.614 81.8215C574.205 91.6416 586.412 102.802 593.825 111.63C602.957 122.504 606.077 140.21 605.991 158.616C605.906 176.996 602.625 195.952 599.072 209.209C595.753 221.595 587.349 231.681 577.523 239.838C567.7 247.993 556.495 254.187 547.635 258.801C544.222 260.579 540.557 262.881 536.66 265.328C535.901 265.805 535.132 266.288 534.355 266.773C529.583 269.754 524.469 272.848 519.001 275.445C508.071 280.637 495.768 283.826 482.048 280.15C446.206 270.546 411.766 241.664 398.966 213.979C395.027 205.459 391.228 194.336 389.023 183.072C386.818 171.798 386.221 160.436 388.639 151.41C391.796 139.627 397.814 126.741 405.054 115.601C412.3 104.453 420.736 95.106 428.704 90.3491C429.5 89.8739 430.361 89.3563 431.283 88.8025C439.947 83.5959 453.953 75.1788 469.27 68.5715C486.241 61.25 504.692 56.21 519.219 60.1024Z" stroke="#888888" stroke-opacity="0.16"/>
<path d="M505.538 113.62C511.55 115.231 518.52 119.32 524.869 124.126C531.211 128.928 536.884 134.407 540.307 138.75C544.484 144.051 545.825 152.821 545.638 162.039C545.451 171.227 543.75 180.733 541.967 187.39C540.313 193.562 536.289 198.646 531.592 202.793C526.897 206.939 521.562 210.122 517.333 212.503C515.693 213.426 513.929 214.616 512.065 215.873C511.702 216.118 511.335 216.365 510.965 216.614C508.683 218.144 506.247 219.728 503.652 221.066C498.464 223.74 492.686 225.406 486.313 223.698C469.5 219.193 453.491 205.052 447.683 191.357C445.894 187.136 444.189 181.612 443.238 176.004C442.286 170.388 442.099 164.737 443.304 160.242C444.886 154.338 447.827 147.854 451.334 142.231C454.847 136.598 458.893 131.883 462.657 129.465C463.038 129.22 463.45 128.954 463.891 128.669C468.036 125.991 474.72 121.671 482.008 118.246C486.038 116.352 490.237 114.739 494.279 113.829C498.324 112.919 502.179 112.72 505.538 113.62Z" stroke="#888888" stroke-opacity="0.16"/>
<path d="M537.141 -12.6529C559.384 -6.69292 585.175 7.90293 608.633 24.8515C632.085 41.7964 653.156 61.0583 665.961 76.3079C681.792 95.1614 687.17 125.804 687.022 157.557C686.875 189.285 681.212 222 675.08 244.882C669.331 266.339 654.778 283.789 637.807 297.878C620.838 311.965 601.49 322.659 586.21 330.617C580.339 333.675 574.034 337.635 567.315 341.854C566.005 342.677 564.679 343.51 563.337 344.348C555.106 349.489 546.274 354.832 536.827 359.32C517.938 368.293 496.632 373.825 472.863 367.456C410.97 350.872 351.495 301.006 329.377 253.165C322.574 238.45 316.013 219.244 312.207 199.792C308.399 180.331 307.359 160.676 311.549 145.038C317.005 124.678 327.397 102.426 339.898 83.1916C352.405 63.9486 366.987 47.7804 380.794 39.5375C382.166 38.7185 383.65 37.8264 385.239 36.8714C400.177 27.8947 424.348 13.3694 450.78 1.96677C480.05 -10.6602 511.965 -19.3987 537.141 -12.6529Z" stroke="#888888" stroke-opacity="0.16"/>
<path d="M1181.72 88.7728C1191.05 91.2736 1201.9 97.4074 1211.78 104.549C1221.66 111.687 1230.53 119.797 1235.91 126.207C1242.52 134.078 1244.79 146.913 1244.73 160.295C1244.67 173.649 1242.28 187.425 1239.7 197.058C1237.3 206.03 1231.21 213.344 1224.07 219.267C1216.94 225.189 1208.8 229.688 1202.36 233.044C1199.87 234.34 1197.2 236.018 1194.37 237.797C1193.81 238.144 1193.26 238.495 1192.69 238.847C1189.22 241.015 1185.51 243.262 1181.54 245.147C1173.6 248.916 1164.69 251.224 1154.75 248.561C1128.72 241.585 1103.7 220.602 1094.41 200.506C1091.55 194.319 1088.79 186.239 1087.19 178.057C1085.59 169.865 1085.16 161.625 1086.91 155.089C1089.2 146.535 1093.57 137.175 1098.83 129.083C1104.1 120.981 1110.22 114.203 1115.99 110.758C1116.57 110.412 1117.19 110.036 1117.86 109.633C1124.17 105.846 1134.35 99.7282 1145.48 94.9262C1157.82 89.6022 1171.2 85.9546 1181.72 88.7728Z" stroke="#888888" stroke-opacity="0.16"/>
<path d="M1183.6 68.9676C1194.94 72.0061 1208.11 79.4551 1220.1 88.1209C1232.09 96.783 1242.86 106.626 1249.39 114.41C1257.46 124.021 1261.9 138.759 1263.53 154.072C1265.15 169.374 1263.96 185.168 1260.83 196.827C1257.9 207.785 1251.15 219.005 1243.17 228.51C1235.19 238.015 1226.02 245.761 1218.27 249.796C1211.13 253.514 1200.34 258.448 1188.29 261.634C1176.23 264.821 1162.96 266.248 1150.83 262.999C1119.22 254.53 1088.85 229.058 1077.57 204.65C1070.64 189.653 1068.17 166.456 1072.46 150.464C1075.25 140.046 1079.57 128.428 1084.95 118.361C1090.35 108.28 1096.79 99.8234 1103.78 95.6475C1104.48 95.2282 1105.24 94.7715 1106.06 94.2829C1113.7 89.6891 1126.06 82.2648 1139.57 76.4369C1154.54 69.9778 1170.8 65.5389 1183.6 68.9676Z" stroke="#888888" stroke-opacity="0.16"/>
<path d="M1186.02 57.5725C1199.23 61.1114 1214.46 68.5231 1228.31 77.328C1242.15 86.1337 1254.57 96.3062 1262.15 105.341C1271.54 116.522 1276.7 133.66 1278.59 151.455C1280.48 169.238 1279.09 187.595 1275.46 201.149C1272.05 213.893 1264.2 226.936 1254.93 237.982C1245.65 249.029 1234.99 258.035 1225.98 262.728C1217.68 267.048 1205.14 272.782 1191.13 276.485C1177.12 280.189 1161.69 281.85 1147.58 278.071C1129.2 273.145 1109.68 264.655 1093.12 253.844C1076.55 243.027 1062.99 229.918 1056.46 215.777C1052.45 207.116 1051.2 194.674 1051.58 182.013C1051.97 169.366 1053.99 156.572 1056.48 147.251C1059.73 135.145 1064.75 121.643 1071.01 109.944C1077.28 98.2291 1084.77 88.3904 1092.91 83.5283C1101.37 78.4797 1117.18 69.9751 1134.62 63.7424C1152.09 57.5018 1171.11 53.5763 1186.02 57.5725Z" stroke="#888888" stroke-opacity="0.16"/>
<path d="M1280.92 95.4703L1280.94 95.5032L1280.98 95.5309C1296.04 108.244 1302.13 129.159 1303.4 150.831C1304.66 172.487 1301.1 194.792 1296.99 210.148C1293.14 224.524 1282.51 238.201 1270.23 249.64C1257.96 261.072 1244.09 270.221 1233.86 275.551C1224.48 280.434 1210.3 286.917 1194.47 291.104C1178.63 295.292 1161.17 297.172 1145.21 292.896C1103.63 281.754 1063.46 254.492 1048.64 222.437C1044.1 212.613 1041.73 198.947 1041.22 185.071C1040.71 171.2 1042.04 157.176 1044.86 146.658C1048.53 132.955 1053.55 117.262 1059.97 103.61C1066.4 89.9379 1074.2 78.4019 1083.41 72.9071L1083.48 72.8649L1083.53 72.8022C1099.71 53.8283 1124.88 45.1109 1150.33 42.291C1175.77 39.4719 1201.39 42.5574 1218.37 47.1063C1246.81 54.7261 1262.18 73.0911 1278.52 92.6077C1279.31 93.5595 1280.11 94.5141 1280.92 95.4703Z" stroke="#888888" stroke-opacity="0.16"/>
<path d="M1286.62 89.7613L1286.65 89.7942L1286.68 89.8219C1303.24 103.788 1311.19 128.009 1313.85 153.047C1316.51 178.068 1313.87 203.786 1309.36 220.615C1305.13 236.402 1292.76 252.897 1278.59 266.936C1264.42 280.967 1248.51 292.481 1237.3 298.322C1227.06 303.656 1210.64 308.621 1192.37 311.069C1174.11 313.517 1154.04 313.443 1136.49 308.74C1090.86 296.515 1046.77 266.599 1030.51 231.414C1025.52 220.629 1022.93 205.628 1022.36 190.402C1021.8 175.181 1023.27 159.791 1026.36 148.246C1030.39 133.211 1035.89 115.991 1042.94 101.01C1049.99 86.0091 1058.56 73.3417 1068.67 67.3057L1068.74 67.2634L1068.79 67.2008C1086.57 46.3519 1113.91 34.5399 1141.52 29.197C1169.12 23.8544 1196.92 24.9954 1215.52 29.9795C1231.86 34.3593 1244.9 43.6514 1256.22 54.6828C1264.65 62.8934 1272.11 72.0419 1279.28 80.8372C1281.75 83.8716 1284.19 86.864 1286.62 89.7613Z" stroke="#888888" stroke-opacity="0.16"/>
<path d="M1172.86 134.332C1176.78 135.384 1181.37 137.971 1185.56 141.003C1189.75 144.031 1193.51 147.468 1195.78 150.174C1198.53 153.442 1199.5 158.816 1199.47 164.498C1199.44 170.153 1198.43 175.992 1197.34 180.074C1196.34 183.813 1193.79 186.879 1190.78 189.381C1187.77 191.881 1184.33 193.785 1181.59 195.211C1180.52 195.769 1179.37 196.491 1178.16 197.248C1177.93 197.395 1177.69 197.544 1177.45 197.693C1175.98 198.615 1174.41 199.564 1172.73 200.359C1169.39 201.947 1165.67 202.903 1161.53 201.794C1150.52 198.844 1139.95 189.965 1136.03 181.496C1134.82 178.881 1133.66 175.464 1132.98 172.005C1132.3 168.536 1132.13 165.079 1132.85 162.358C1133.82 158.75 1135.67 154.794 1137.89 151.37C1140.12 147.937 1142.7 145.094 1145.1 143.66C1145.35 143.512 1145.62 143.352 1145.9 143.181C1148.59 141.568 1152.9 138.974 1157.62 136.938C1162.87 134.674 1168.49 133.16 1172.86 134.332Z" stroke="#888888" stroke-opacity="0.16"/>
<path d="M1168.62 150.902C1170.42 151.384 1172.54 152.619 1174.49 154.096C1176.44 155.57 1178.17 157.246 1179.21 158.563C1180.42 160.103 1180.84 162.711 1180.78 165.552C1180.73 168.364 1180.21 171.279 1179.66 173.319C1179.17 175.14 1177.98 176.659 1176.55 177.918C1175.13 179.177 1173.5 180.148 1172.2 180.882C1171.68 181.176 1171.12 181.554 1170.54 181.943C1170.43 182.018 1170.31 182.094 1170.2 182.169C1169.5 182.642 1168.76 183.123 1167.97 183.528C1166.4 184.335 1164.71 184.814 1162.85 184.316C1157.74 182.947 1152.87 178.639 1151.12 174.502C1150.58 173.219 1150.06 171.534 1149.77 169.825C1149.47 168.108 1149.42 166.415 1149.78 165.092C1150.26 163.302 1151.15 161.326 1152.22 159.609C1153.3 157.883 1154.52 156.473 1155.62 155.765C1155.74 155.689 1155.87 155.606 1156.01 155.518C1157.29 154.688 1159.34 153.363 1161.58 152.313C1162.81 151.733 1164.09 151.244 1165.3 150.97C1166.53 150.695 1167.66 150.643 1168.62 150.902Z" stroke="#888888" stroke-opacity="0.16"/>
<path d="M1178.41 111.807C1185.24 113.636 1193.18 118.127 1200.43 123.365C1207.67 128.599 1214.18 134.544 1218.12 139.238C1222.94 144.977 1224.6 154.356 1224.56 164.17C1224.51 173.958 1222.76 184.057 1220.87 191.119C1219.12 197.666 1214.67 203.012 1209.44 207.35C1204.22 211.687 1198.26 214.984 1193.53 217.446C1191.7 218.4 1189.73 219.635 1187.65 220.941C1187.25 221.196 1186.84 221.453 1186.43 221.711C1183.88 223.301 1181.16 224.947 1178.25 226.327C1172.45 229.086 1165.94 230.767 1158.69 228.824C1139.61 223.714 1121.29 208.338 1114.49 193.628C1112.39 189.096 1110.37 183.176 1109.2 177.182C1108.02 171.178 1107.71 165.153 1108.99 160.385C1110.67 154.122 1113.87 147.265 1117.72 141.336C1121.58 135.397 1126.06 130.441 1130.27 127.928C1130.69 127.675 1131.15 127.398 1131.65 127.102C1136.27 124.323 1143.74 119.837 1151.9 116.317C1160.95 112.411 1170.74 109.751 1178.41 111.807Z" stroke="#888888" stroke-opacity="0.16"/>
<path d="M1160.91 446.767C1176.09 450.834 1193.7 460.799 1209.73 472.381C1225.76 483.959 1240.15 497.119 1248.89 507.531C1259.68 520.375 1263.36 541.273 1263.26 562.973C1263.15 584.647 1259.29 606.997 1255.1 622.63C1251.18 637.255 1241.26 649.158 1229.67 658.778C1218.08 668.397 1204.87 675.702 1194.42 681.141C1190.4 683.235 1186.09 685.946 1181.49 688.83C1180.6 689.393 1179.69 689.962 1178.78 690.534C1173.15 694.048 1167.12 697.697 1160.67 700.76C1147.77 706.885 1133.25 710.653 1117.05 706.312C1074.78 694.986 1034.16 660.926 1019.06 628.267C1014.42 618.218 1009.94 605.101 1007.34 591.816C1004.73 578.522 1004.03 565.113 1006.88 554.456C1010.61 540.556 1017.71 525.359 1026.24 512.222C1034.79 499.076 1044.74 488.046 1054.15 482.428C1055.09 481.868 1056.1 481.258 1057.19 480.605C1067.4 474.469 1083.92 464.544 1101.98 456.754C1121.98 448.123 1143.76 442.17 1160.91 446.767Z" stroke="#888888" stroke-opacity="0.16"/>
<path d="M1163.95 414.671C1182.38 419.61 1203.76 431.706 1223.21 445.759C1242.65 459.807 1260.12 475.775 1270.74 488.414C1283.87 504.057 1291.08 528.013 1293.71 552.854C1296.35 577.686 1294.41 603.32 1289.34 622.256C1284.57 640.071 1273.6 658.293 1260.65 673.718C1247.71 689.143 1232.81 701.726 1220.21 708.289C1208.63 714.32 1191.11 722.326 1171.56 727.498C1151.99 732.67 1130.42 734.995 1110.7 729.71C1059.39 715.964 1010.1 674.629 991.767 634.982C980.502 610.617 976.498 572.952 983.463 546.96C987.991 530.059 994.998 511.207 1003.74 494.87C1012.5 478.517 1022.96 464.752 1034.37 457.941C1035.51 457.262 1036.74 456.522 1038.06 455.73C1050.44 448.286 1070.48 436.244 1092.4 426.791C1116.67 416.32 1143.11 409.086 1163.95 414.671Z" stroke="#888888" stroke-opacity="0.16"/>
<path d="M1167.88 396.205C1189.32 401.951 1214.04 413.979 1236.49 428.258C1258.95 442.538 1279.09 459.043 1291.42 473.716C1306.69 491.904 1315.06 519.75 1318.13 548.613C1321.19 577.466 1318.94 607.252 1313.04 629.259C1307.49 649.968 1294.75 671.145 1279.71 689.068C1264.66 706.992 1247.35 721.616 1232.7 729.246C1219.24 736.253 1198.9 745.556 1176.17 751.565C1153.43 757.575 1128.36 760.279 1105.43 754.135C1075.61 746.144 1043.95 732.373 1017.09 714.834C990.211 697.289 968.182 676.006 957.552 653.014C951.033 638.913 948.998 618.691 949.624 598.158C950.249 577.64 953.528 556.882 957.581 541.754C962.843 522.117 970.984 500.213 981.147 481.229C991.319 462.23 1003.48 446.225 1016.75 438.301C1030.47 430.113 1056.11 416.321 1084.41 406.211C1112.73 396.094 1143.62 389.703 1167.88 396.205Z" stroke="#888888" stroke-opacity="0.16"/>
<path d="M1321.82 457.721L1321.85 457.754L1321.88 457.782C1346.4 478.466 1356.27 512.465 1358.33 547.617C1360.38 582.754 1354.61 618.934 1347.93 643.843C1341.67 667.222 1324.39 689.435 1304.47 707.989C1284.57 726.535 1262.08 741.378 1245.47 750.027C1230.26 757.947 1207.26 768.463 1181.57 775.256C1155.87 782.05 1127.52 785.109 1101.59 778.161C1034.15 760.091 968.955 715.868 944.886 663.808C937.501 647.835 933.668 625.642 932.835 603.135C932.002 580.633 934.17 557.875 938.747 540.793C944.7 518.578 952.831 493.127 963.248 470.98C973.674 448.812 986.351 430.044 1001.35 421.089L1001.42 421.047L1001.47 420.985C1027.76 390.151 1068.65 376.006 1109.93 371.432C1151.19 366.859 1192.76 371.864 1220.31 379.244C1266.49 391.619 1291.46 421.45 1317.92 453.068C1319.22 454.615 1320.52 456.167 1321.82 457.721Z" stroke="#888888" stroke-opacity="0.16"/>
<path d="M1331.07 448.469L1331.1 448.502L1331.13 448.53C1358.05 471.241 1370.95 510.592 1375.26 551.194C1379.57 591.78 1375.3 633.496 1367.98 660.804C1361.1 686.469 1341.01 713.248 1318.03 736.011C1295.05 758.766 1269.25 777.447 1251.04 786.928C1234.4 795.594 1207.76 803.647 1178.13 807.618C1148.51 811.589 1115.94 811.471 1087.45 803.837C1013.46 784.01 941.911 735.488 915.498 678.356C907.392 660.824 903.187 636.469 902.273 611.774C901.359 587.084 903.737 562.112 908.76 543.366C915.291 518.993 924.213 491.068 935.643 466.767C947.082 442.445 960.995 421.844 977.463 412.012L977.534 411.97L977.587 411.907C1006.46 378.047 1050.85 358.882 1095.62 350.216C1140.4 341.551 1185.49 343.398 1215.68 351.489C1242.24 358.605 1263.41 373.701 1281.79 391.6C1295.46 404.919 1307.56 419.765 1319.18 434.022C1323.19 438.937 1327.14 443.781 1331.07 448.469Z" stroke="#888888" stroke-opacity="0.16"/>
<path d="M1146.55 520.599C1152.97 522.317 1160.43 526.535 1167.24 531.457C1174.05 536.376 1180.16 541.961 1183.86 546.371C1188.38 551.756 1189.95 560.562 1189.91 569.785C1189.86 578.981 1188.22 588.471 1186.44 595.106C1184.8 601.251 1180.62 606.271 1175.71 610.346C1170.81 614.42 1165.2 617.518 1160.76 619.832C1159.04 620.729 1157.19 621.89 1155.23 623.118C1154.85 623.357 1154.47 623.599 1154.08 623.841C1151.69 625.336 1149.13 626.882 1146.4 628.178C1140.95 630.769 1134.84 632.347 1128.03 630.523C1110.11 625.722 1092.9 611.276 1086.51 597.459C1084.54 593.202 1082.64 587.64 1081.54 582.009C1080.44 576.368 1080.14 570.71 1081.34 566.235C1082.92 560.352 1085.93 553.911 1089.55 548.34C1093.17 542.76 1097.38 538.106 1101.33 535.748C1101.73 535.509 1102.16 535.249 1102.63 534.972C1106.97 532.359 1113.99 528.144 1121.66 524.836C1130.17 521.165 1139.35 518.67 1146.55 520.599Z" stroke="#888888" stroke-opacity="0.16"/>
<path d="M1139.69 547.451C1142.66 548.247 1146.13 550.277 1149.3 552.681C1152.47 555.08 1155.3 557.815 1157 559.974C1159.04 562.561 1159.72 566.884 1159.62 571.499C1159.53 576.085 1158.68 580.834 1157.79 584.159C1156.98 587.191 1155 589.702 1152.66 591.765C1150.33 593.827 1147.67 595.414 1145.55 596.607C1144.72 597.075 1143.82 597.679 1142.89 598.31C1142.71 598.432 1142.52 598.556 1142.34 598.679C1141.19 599.447 1139.98 600.235 1138.69 600.899C1136.12 602.226 1133.29 603.035 1130.17 602.2C1121.81 599.959 1113.84 592.914 1110.96 586.117C1110.07 584.017 1109.22 581.263 1108.74 578.469C1108.27 575.667 1108.18 572.873 1108.77 570.667C1109.56 567.732 1111.02 564.501 1112.77 561.698C1114.52 558.884 1116.53 556.554 1118.37 555.37C1118.57 555.247 1118.77 555.114 1118.99 554.971C1121.07 553.626 1124.41 551.468 1128.05 549.757C1130.07 548.811 1132.16 548.01 1134.16 547.559C1136.17 547.107 1138.06 547.014 1139.69 547.451Z" stroke="#888888" stroke-opacity="0.16"/>
<path d="M1155.55 484.095C1166.66 487.074 1179.58 494.377 1191.33 502.874C1203.09 511.366 1213.64 521.017 1220.05 528.649C1227.94 538.037 1230.64 553.334 1230.56 569.254C1230.49 585.147 1227.65 601.54 1224.58 613.004C1221.71 623.701 1214.45 632.415 1205.96 639.467C1197.47 646.517 1187.78 651.873 1180.12 655.864C1177.16 657.403 1173.99 659.397 1170.62 661.514C1169.96 661.926 1169.29 662.344 1168.62 662.763C1164.49 665.342 1160.07 668.016 1155.35 670.261C1145.9 674.749 1135.27 677.502 1123.42 674.328C1092.43 666.024 1062.66 641.05 1051.59 617.12C1048.19 609.754 1044.9 600.137 1043 590.398C1041.09 580.649 1040.58 570.831 1042.66 563.038C1045.39 552.852 1050.6 541.711 1056.86 532.079C1063.12 522.437 1070.41 514.362 1077.29 510.254C1077.98 509.843 1078.73 509.395 1079.52 508.916C1087.02 504.412 1099.13 497.132 1112.38 491.418C1127.06 485.085 1143 480.734 1155.55 484.095Z" stroke="#888888" stroke-opacity="0.16"/>
<path d="M1758.07 485.759C1771.81 489.44 1787.76 498.463 1802.28 508.952C1816.79 519.438 1829.83 531.355 1837.74 540.783C1847.5 552.402 1850.83 571.317 1850.74 590.97C1850.65 610.596 1847.15 630.837 1843.35 644.994C1839.81 658.227 1830.83 669.001 1820.33 677.712C1809.84 686.421 1797.88 693.035 1788.42 697.962C1784.78 699.859 1780.86 702.316 1776.7 704.929C1775.89 705.439 1775.07 705.954 1774.24 706.472C1769.15 709.655 1763.69 712.958 1757.85 715.732C1746.17 721.277 1733.03 724.686 1718.37 720.758C1680.09 710.502 1643.32 679.66 1629.65 650.092C1625.44 640.993 1621.38 629.115 1619.03 617.086C1616.67 605.048 1616.03 592.911 1618.62 583.268C1621.99 570.683 1628.42 556.922 1636.15 545.027C1643.89 533.122 1652.9 523.138 1661.41 518.055C1662.26 517.548 1663.18 516.995 1664.16 516.404C1673.41 510.845 1688.37 501.858 1704.72 494.802C1722.84 486.985 1742.55 481.6 1758.07 485.759Z" stroke="#888888" stroke-opacity="0.16"/>
<path d="M1760.83 456.687C1777.52 461.158 1796.88 472.111 1814.49 484.838C1832.1 497.561 1847.92 512.022 1857.53 523.467C1869.42 537.625 1875.94 559.313 1878.33 581.81C1880.72 604.296 1878.96 627.509 1874.37 644.655C1870.05 660.783 1860.12 677.282 1848.4 691.25C1836.67 705.218 1823.18 716.611 1811.77 722.552C1801.29 728.014 1785.43 735.264 1767.72 739.947C1750 744.631 1730.47 746.735 1712.62 741.951C1666.16 729.503 1621.52 692.071 1604.92 656.174C1594.72 634.114 1591.1 600.01 1597.4 576.478C1601.51 561.172 1607.85 544.1 1615.77 529.306C1623.7 514.496 1633.17 502.038 1643.49 495.875C1644.52 495.26 1645.64 494.589 1646.83 493.872C1658.05 487.129 1676.2 476.224 1696.05 467.662C1718.03 458.179 1741.97 451.632 1760.83 456.687Z" stroke="#888888" stroke-opacity="0.16"/>
<path d="M1764.39 439.961C1783.8 445.163 1806.19 456.055 1826.52 468.988C1846.86 481.92 1865.1 496.867 1876.26 510.153C1890.08 526.617 1897.67 551.828 1900.44 577.968C1903.22 604.097 1901.18 631.071 1895.84 650.997C1890.82 669.747 1879.28 688.922 1865.65 705.153C1852.03 721.385 1836.35 734.627 1823.09 741.534C1810.9 747.88 1792.48 756.304 1771.89 761.746C1751.31 767.189 1728.61 769.636 1707.85 764.074C1680.84 756.837 1652.17 744.365 1627.84 728.482C1603.5 712.592 1583.55 693.321 1573.93 672.507C1568.03 659.745 1566.19 641.437 1566.75 622.841C1567.32 604.259 1570.29 585.461 1573.96 571.762C1578.73 553.978 1586.1 534.141 1595.3 516.95C1604.51 499.743 1615.52 485.255 1627.54 478.085C1639.96 470.67 1663.18 458.178 1688.81 449.023C1714.46 439.86 1742.42 434.075 1764.39 439.961Z" stroke="#888888" stroke-opacity="0.16"/>
<path d="M1903.8 495.666L1903.83 495.699L1903.86 495.726C1926.05 514.449 1935 545.229 1936.86 577.064C1938.71 608.883 1933.49 641.65 1927.44 664.208C1921.77 685.371 1906.13 705.484 1888.09 722.287C1870.06 739.083 1849.7 752.525 1834.66 760.357C1820.89 767.53 1800.06 777.054 1776.79 783.205C1753.51 789.358 1727.85 792.127 1704.37 785.836C1643.29 769.471 1584.25 729.422 1562.46 682.284C1555.77 667.824 1552.3 647.729 1551.55 627.346C1550.79 606.968 1552.76 586.359 1556.9 570.892C1562.29 550.772 1569.66 527.722 1579.09 507.665C1588.53 487.588 1600.01 470.599 1613.58 462.496L1613.66 462.454L1613.71 462.391C1637.51 434.475 1674.53 421.666 1711.91 417.524C1749.28 413.382 1786.93 417.915 1811.87 424.599C1853.69 435.803 1876.3 462.813 1900.27 491.453C1901.44 492.854 1902.62 494.259 1903.8 495.666Z" stroke="#888888" stroke-opacity="0.16"/>
<path d="M1912.18 487.285L1912.21 487.318L1912.24 487.346C1936.61 507.905 1948.29 543.533 1952.19 580.306C1956.1 617.061 1952.22 654.841 1945.6 679.571C1939.37 702.805 1921.18 727.053 1900.36 747.67C1879.56 768.279 1856.19 785.196 1839.71 793.781C1824.64 801.628 1800.51 808.921 1773.68 812.517C1746.85 816.113 1717.36 816.006 1691.56 809.093C1624.55 791.137 1559.76 747.192 1535.84 695.461C1528.5 679.589 1524.69 657.536 1523.87 635.17C1523.04 612.811 1525.19 590.196 1529.74 573.222C1535.66 551.147 1543.74 525.856 1554.09 503.849C1564.45 481.82 1577.04 463.171 1591.95 454.273L1592.02 454.231L1592.07 454.168C1618.21 423.51 1658.41 406.154 1698.96 398.306C1739.51 390.458 1780.34 392.132 1807.68 399.458C1831.73 405.901 1850.9 419.569 1867.54 435.778C1879.92 447.84 1890.88 461.284 1901.41 474.197C1905.03 478.649 1908.61 483.038 1912.18 487.285Z" stroke="#888888" stroke-opacity="0.16"/>
<path d="M1745.07 552.633C1750.87 554.187 1757.63 558.004 1763.79 562.461C1769.96 566.914 1775.49 571.971 1778.84 575.962C1782.92 580.826 1784.34 588.787 1784.3 597.139C1784.26 605.464 1782.78 614.055 1781.17 620.062C1779.68 625.615 1775.91 630.155 1771.46 633.843C1767.02 637.529 1761.95 640.333 1757.93 642.429C1756.37 643.242 1754.69 644.295 1752.92 645.407C1752.58 645.624 1752.23 645.843 1751.88 646.062C1749.71 647.416 1747.39 648.815 1744.93 649.988C1739.99 652.332 1734.47 653.757 1728.32 652.109C1712.1 647.764 1696.52 634.687 1690.74 622.186C1688.96 618.333 1687.24 613.299 1686.24 608.202C1685.24 603.096 1684.98 597.98 1686.06 593.936C1687.49 588.613 1690.21 582.783 1693.49 577.74C1696.77 572.689 1700.58 568.481 1704.15 566.35C1704.51 566.134 1704.9 565.898 1705.32 565.646C1709.26 563.28 1715.61 559.464 1722.55 556.469C1730.26 553.144 1738.57 550.89 1745.07 552.633Z" stroke="#888888" stroke-opacity="0.16"/>
<path d="M1738.85 576.956C1741.53 577.675 1744.67 579.509 1747.54 581.685C1750.41 583.856 1752.97 586.331 1754.51 588.282C1756.35 590.612 1756.96 594.513 1756.87 598.692C1756.79 602.841 1756.02 607.139 1755.22 610.147C1754.48 612.882 1752.7 615.149 1750.58 617.014C1748.47 618.878 1746.07 620.313 1744.15 621.393C1743.39 621.819 1742.58 622.367 1741.73 622.938C1741.57 623.049 1741.4 623.161 1741.24 623.273C1740.2 623.968 1739.11 624.68 1737.94 625.28C1735.61 626.479 1733.06 627.207 1730.26 626.455C1722.69 624.429 1715.49 618.057 1712.88 611.915C1712.08 610.015 1711.31 607.525 1710.88 604.998C1710.45 602.463 1710.37 599.94 1710.9 597.951C1711.61 595.298 1712.94 592.376 1714.52 589.839C1716.11 587.293 1717.92 585.19 1719.58 584.123C1719.76 584.012 1719.94 583.89 1720.14 583.761C1722.03 582.543 1725.05 580.59 1728.35 579.042C1730.17 578.186 1732.06 577.461 1733.87 577.054C1735.68 576.645 1737.38 576.563 1738.85 576.956Z" stroke="#888888" stroke-opacity="0.16"/>
<path d="M1753.22 519.569C1763.28 522.265 1774.97 528.876 1785.62 536.571C1796.26 544.262 1805.82 553.001 1811.62 559.91C1818.75 568.4 1821.2 582.241 1821.13 596.658C1821.06 611.049 1818.49 625.893 1815.71 636.274C1813.12 645.95 1806.55 653.836 1798.86 660.22C1791.17 666.602 1782.4 671.451 1775.46 675.066C1772.78 676.461 1769.9 678.268 1766.85 680.186C1766.26 680.559 1765.65 680.937 1765.05 681.317C1761.31 683.653 1757.3 686.074 1753.03 688.106C1744.47 692.168 1734.86 694.658 1724.14 691.787C1696.09 684.269 1669.13 661.656 1659.11 639.995C1656.03 633.326 1653.06 624.619 1651.33 615.801C1649.6 606.974 1649.14 598.089 1651.03 591.04C1653.5 581.82 1658.21 571.733 1663.88 563.012C1669.55 554.282 1676.15 546.974 1682.37 543.258C1683 542.886 1683.67 542.48 1684.39 542.046C1691.18 537.966 1702.15 531.375 1714.15 526.2C1727.44 520.464 1741.87 516.529 1753.22 519.569Z" stroke="#888888" stroke-opacity="0.16"/>
<path d="M157.63 677.861C168.505 680.775 181.137 687.92 192.642 696.233C204.142 704.542 214.469 713.983 220.738 721.45C228.449 730.632 231.09 745.594 231.018 761.17C230.945 776.719 228.169 792.756 225.164 803.972C222.361 814.435 215.26 822.959 206.95 829.857C198.642 836.754 189.165 841.994 181.666 845.899C178.774 847.405 175.669 849.356 172.371 851.427C171.728 851.831 171.078 852.239 170.421 852.65C166.382 855.172 162.056 857.789 157.433 859.985C148.191 864.375 137.796 867.068 126.208 863.963C95.8912 855.84 66.7602 831.407 55.9372 807.998C52.6055 800.791 49.3914 791.382 47.5271 781.855C45.661 772.317 45.1579 762.713 47.2004 755.091C49.8704 745.126 54.9598 734.227 61.0843 724.804C67.2147 715.372 74.3474 707.472 81.0768 703.454C81.7506 703.052 82.4796 702.614 83.2597 702.145C90.5932 697.738 102.444 690.616 115.403 685.026C129.766 678.83 145.362 674.574 157.63 677.861Z" stroke="#888888" stroke-opacity="0.16"/>
<path d="M159.816 654.815C173.027 658.354 188.361 667.029 202.321 677.116C216.276 687.199 228.81 698.657 236.422 707.722C245.827 718.924 250.997 736.093 252.889 753.919C254.781 771.735 253.392 790.125 249.753 803.703C246.332 816.47 238.473 829.537 229.183 840.603C219.892 851.67 209.208 860.692 200.18 865.394C191.871 869.722 179.306 875.466 165.275 879.176C151.238 882.887 135.775 884.55 121.646 880.765C84.8433 870.903 49.4798 841.247 36.3368 812.819C28.2608 795.351 25.39 768.339 30.382 749.708C33.6316 737.581 38.6592 724.054 44.9339 712.334C51.217 700.598 58.7147 690.741 66.8737 685.87C67.6908 685.383 68.575 684.851 69.5213 684.283C78.4166 678.937 92.798 670.295 108.524 663.51C125.949 655.993 144.897 650.817 159.816 654.815Z" stroke="#888888" stroke-opacity="0.16"/>
<path d="M162.637 641.554C178.016 645.675 195.751 654.304 211.866 664.553C227.982 674.803 242.437 686.645 251.272 697.167C262.213 710.197 268.22 730.159 270.42 750.873C272.618 771.577 271.004 792.948 266.775 808.732C262.797 823.577 253.66 838.765 242.864 851.625C232.067 864.486 219.649 874.974 209.15 880.442C199.495 885.471 184.894 892.146 168.587 896.457C152.275 900.77 134.298 902.706 117.867 898.303C96.4654 892.568 73.7453 882.685 54.4667 870.1C35.1795 857.508 19.3858 842.243 11.7685 825.767C7.1011 815.672 5.63909 801.178 6.08809 786.44C6.53665 771.717 8.88971 756.822 11.7976 745.97C15.5736 731.877 21.4158 716.159 28.7078 702.538C36.0083 688.902 44.7261 677.437 54.2229 671.767C64.0663 665.89 82.4678 655.991 102.778 648.736C123.111 641.473 145.256 636.897 162.637 641.554Z" stroke="#888888" stroke-opacity="0.16"/>
<path d="M273.106 685.682L273.134 685.715L273.166 685.743C290.726 700.558 297.814 724.925 299.288 750.152C300.761 775.364 296.618 801.329 291.829 819.205C287.34 835.955 274.955 851.884 260.662 865.2C246.377 878.508 230.237 889.16 218.324 895.364C207.409 901.049 190.903 908.595 172.467 913.47C154.025 918.345 133.696 920.536 115.109 915.556C66.7069 902.586 19.9326 870.85 2.67327 833.519C-2.61845 822.073 -5.36939 806.157 -5.96722 790.004C-6.56483 773.857 -5.00878 757.53 -1.72654 745.28C2.54671 729.332 8.38308 711.065 15.8582 695.172C23.3431 679.259 32.4309 665.816 43.1633 659.408L43.234 659.366L43.2875 659.303C62.1325 637.201 91.4513 627.052 121.072 623.77C150.686 620.488 180.518 624.079 200.283 629.375C233.4 638.249 251.304 659.639 270.311 682.347C271.24 683.456 272.171 684.568 273.106 685.682Z" stroke="#888888" stroke-opacity="0.16"/>
<path d="M279.748 679.038L279.776 679.071L279.809 679.099C299.095 695.372 308.35 723.583 311.447 752.727C314.541 781.853 311.472 811.791 306.222 831.384C301.293 849.777 286.887 868.984 270.389 885.325C253.899 901.656 235.383 915.061 222.325 921.862C210.395 928.075 191.281 933.854 170.016 936.704C148.754 939.554 125.389 939.468 104.953 933.992C51.8433 919.762 0.512903 884.938 -18.4302 843.965C-24.2395 831.399 -27.258 813.931 -27.914 796.207C-28.5698 778.489 -26.8625 760.571 -23.26 747.127C-18.5716 729.629 -12.1677 709.586 -3.96509 692.146C4.24719 674.687 14.2224 659.926 26.0098 652.889L26.0805 652.847L26.134 652.784C46.8365 628.503 78.6756 614.752 110.812 608.533C142.946 602.313 175.301 603.641 196.96 609.445C215.999 614.546 231.182 625.369 244.367 638.212C254.179 647.77 262.861 658.421 271.204 668.657C274.082 672.188 276.919 675.668 279.748 679.038Z" stroke="#888888" stroke-opacity="0.16"/>
<path d="M147.322 730.878C151.902 732.105 157.245 735.123 162.131 738.653C167.012 742.18 171.389 746.183 174.039 749.339C177.252 753.165 178.378 759.444 178.348 766.06C178.317 772.65 177.14 779.451 175.866 784.207C174.694 788.58 171.72 792.162 168.207 795.079C164.695 797.994 160.684 800.213 157.495 801.873C156.253 802.52 154.919 803.358 153.515 804.24C153.242 804.411 152.967 804.584 152.689 804.758C150.971 805.831 149.141 806.937 147.189 807.864C143.289 809.717 138.938 810.837 134.095 809.54C121.265 806.102 108.938 795.754 104.37 785.874C102.961 782.826 101.6 778.843 100.811 774.811C100.02 770.77 99.8146 766.732 100.668 763.548C101.795 759.34 103.948 754.728 106.541 750.738C109.14 746.739 112.147 743.418 114.957 741.741C115.245 741.569 115.555 741.383 115.887 741.183C119.01 739.307 124.038 736.285 129.535 733.914C135.643 731.279 142.202 729.506 147.322 730.878Z" stroke="#888888" stroke-opacity="0.16"/>
<path d="M142.393 750.16C144.5 750.724 146.972 752.169 149.247 753.891C151.516 755.609 153.538 757.564 154.751 759.103C156.183 760.919 156.67 763.98 156.603 767.289C156.537 770.569 155.929 773.967 155.291 776.346C154.718 778.487 153.317 780.267 151.651 781.739C149.985 783.209 148.088 784.342 146.568 785.198C145.965 785.538 145.316 785.975 144.645 786.428C144.515 786.516 144.384 786.604 144.253 786.692C143.432 787.243 142.567 787.805 141.649 788.278C139.817 789.222 137.82 789.788 135.632 789.201C129.664 787.602 123.978 782.572 121.926 777.733C121.29 776.235 120.683 774.268 120.345 772.273C120.006 770.27 119.946 768.287 120.362 766.731C120.923 764.639 121.969 762.332 123.218 760.328C124.473 758.315 125.901 756.662 127.199 755.829C127.337 755.74 127.485 755.644 127.644 755.541C129.139 754.576 131.529 753.031 134.134 751.807C135.574 751.13 137.064 750.559 138.489 750.238C139.918 749.917 141.251 749.854 142.393 750.16Z" stroke="#888888" stroke-opacity="0.16"/>
<path d="M153.779 704.665C161.738 706.798 170.993 712.03 179.432 718.128C187.865 724.221 195.436 731.144 200.029 736.613C205.656 743.314 207.595 754.254 207.542 765.679C207.489 777.077 205.454 788.836 203.25 797.059C201.203 804.701 196.014 810.936 189.926 815.99C183.84 821.042 176.895 824.882 171.393 827.748C169.265 828.856 166.98 830.291 164.56 831.811C164.088 832.107 163.612 832.406 163.13 832.707C160.166 834.558 156.997 836.475 153.611 838.083C146.844 841.298 139.249 843.262 130.786 840.995C108.57 835.042 87.2231 817.134 79.2979 799.992C76.8569 794.713 74.5013 787.817 73.1352 780.835C71.7673 773.844 71.402 766.819 72.8934 761.252C74.8488 753.955 78.5777 745.968 83.0663 739.062C87.5609 732.146 92.7825 726.368 97.6962 723.434C98.191 723.139 98.7262 722.817 99.2988 722.473C104.682 719.238 113.372 714.016 122.874 709.917C133.413 705.371 144.822 702.265 153.779 704.665Z" stroke="#888888" stroke-opacity="0.16"/>
<path d="M1453.91 823.767C1469.09 827.834 1486.7 837.799 1502.73 849.381C1518.76 860.959 1533.15 874.119 1541.89 884.531C1552.68 897.375 1556.36 918.273 1556.26 939.973C1556.15 961.647 1552.29 983.997 1548.1 999.63C1544.18 1014.25 1534.26 1026.16 1522.67 1035.78C1511.08 1045.4 1497.87 1052.7 1487.42 1058.14C1483.4 1060.23 1479.09 1062.95 1474.49 1065.83C1473.6 1066.39 1472.69 1066.96 1471.78 1067.53C1466.15 1071.05 1460.12 1074.7 1453.67 1077.76C1440.77 1083.89 1426.25 1087.65 1410.05 1083.31C1367.78 1071.99 1327.16 1037.93 1312.06 1005.27C1307.42 995.218 1302.94 982.101 1300.34 968.816C1297.73 955.522 1297.03 942.113 1299.88 931.456C1303.61 917.556 1310.71 902.359 1319.24 889.222C1327.79 876.076 1337.74 865.046 1347.15 859.428C1348.09 858.868 1349.1 858.258 1350.19 857.605C1360.4 851.469 1376.92 841.544 1394.98 833.754C1414.98 825.123 1436.76 819.17 1453.91 823.767Z" stroke="#888888" stroke-opacity="0.16"/>
<path d="M1456.95 791.671C1475.38 796.61 1496.76 808.706 1516.21 822.759C1535.65 836.807 1553.12 852.775 1563.74 865.414C1576.87 881.057 1584.08 905.013 1586.71 929.854C1589.35 954.686 1587.41 980.32 1582.34 999.256C1577.57 1017.07 1566.6 1035.29 1553.65 1050.72C1540.71 1066.14 1525.81 1078.73 1513.21 1085.29C1501.63 1091.32 1484.11 1099.33 1464.56 1104.5C1444.99 1109.67 1423.42 1111.99 1403.7 1106.71C1352.39 1092.96 1303.1 1051.63 1284.77 1011.98C1273.5 987.617 1269.5 949.952 1276.46 923.96C1280.99 907.059 1288 888.207 1296.74 871.87C1305.5 855.517 1315.96 841.752 1327.37 834.941C1328.51 834.262 1329.74 833.522 1331.06 832.73C1343.44 825.286 1363.48 813.244 1385.4 803.791C1409.67 793.32 1436.11 786.086 1456.95 791.671Z" stroke="#888888" stroke-opacity="0.16"/>
<path d="M1460.88 773.205C1482.32 778.951 1507.04 790.979 1529.49 805.258C1551.95 819.538 1572.09 836.043 1584.42 850.716C1599.69 868.904 1608.06 896.75 1611.13 925.613C1614.19 954.466 1611.94 984.252 1606.04 1006.26C1600.49 1026.97 1587.75 1048.15 1572.71 1066.07C1557.66 1083.99 1540.35 1098.62 1525.7 1106.25C1512.24 1113.25 1491.9 1122.56 1469.17 1128.56C1446.43 1134.58 1421.36 1137.28 1398.43 1131.13C1368.61 1123.14 1336.95 1109.37 1310.09 1091.83C1283.21 1074.29 1261.18 1053.01 1250.55 1030.01C1244.03 1015.91 1242 995.691 1242.62 975.158C1243.25 954.64 1246.53 933.882 1250.58 918.754C1255.84 899.117 1263.98 877.213 1274.15 858.229C1284.32 839.23 1296.48 823.225 1309.75 815.301C1323.47 807.113 1349.11 793.321 1377.41 783.211C1405.73 773.094 1436.62 766.703 1460.88 773.205Z" stroke="#888888" stroke-opacity="0.16"/>
<path d="M1614.82 834.721L1614.85 834.754L1614.88 834.782C1639.4 855.466 1649.27 889.465 1651.33 924.617C1653.38 959.754 1647.61 995.934 1640.93 1020.84C1634.67 1044.22 1617.39 1066.43 1597.47 1084.99C1577.57 1103.54 1555.08 1118.38 1538.47 1127.03C1523.26 1134.95 1500.26 1145.46 1474.57 1152.26C1448.87 1159.05 1420.52 1162.11 1394.59 1155.16C1327.15 1137.09 1261.95 1092.87 1237.89 1040.81C1230.5 1024.84 1226.67 1002.64 1225.83 980.135C1225 957.633 1227.17 934.875 1231.75 917.793C1237.7 895.578 1245.83 870.127 1256.25 847.98C1266.67 825.812 1279.35 807.044 1294.35 798.089L1294.42 798.047L1294.47 797.985C1320.76 767.151 1361.65 753.006 1402.93 748.432C1444.19 743.859 1485.76 748.864 1513.31 756.244C1559.49 768.619 1584.46 798.45 1610.92 830.068C1612.22 831.615 1613.52 833.167 1614.82 834.721Z" stroke="#888888" stroke-opacity="0.16"/>
<path d="M1624.07 825.469L1624.1 825.502L1624.13 825.53C1651.05 848.241 1663.95 887.592 1668.26 928.194C1672.57 968.78 1668.3 1010.5 1660.98 1037.8C1654.1 1063.47 1634.01 1090.25 1611.03 1113.01C1588.05 1135.77 1562.25 1154.45 1544.04 1163.93C1527.4 1172.59 1500.76 1180.65 1471.13 1184.62C1441.51 1188.59 1408.94 1188.47 1380.45 1180.84C1306.46 1161.01 1234.91 1112.49 1208.5 1055.36C1200.39 1037.82 1196.19 1013.47 1195.27 988.774C1194.36 964.084 1196.74 939.112 1201.76 920.366C1208.29 895.993 1217.21 868.068 1228.64 843.767C1240.08 819.445 1253.99 798.844 1270.46 789.012L1270.53 788.97L1270.59 788.907C1299.46 755.047 1343.85 735.882 1388.62 727.216C1433.4 718.551 1478.49 720.398 1508.68 728.489C1535.24 735.605 1556.41 750.701 1574.79 768.6C1588.46 781.919 1600.56 796.765 1612.18 811.022C1616.19 815.937 1620.14 820.781 1624.07 825.469Z" stroke="#888888" stroke-opacity="0.16"/>
<path d="M1439.55 897.599C1445.97 899.317 1453.43 903.535 1460.24 908.457C1467.05 913.376 1473.16 918.961 1476.86 923.371C1481.38 928.756 1482.95 937.562 1482.91 946.785C1482.86 955.981 1481.22 965.471 1479.44 972.106C1477.8 978.251 1473.62 983.271 1468.71 987.346C1463.81 991.42 1458.2 994.518 1453.76 996.832C1452.04 997.729 1450.19 998.89 1448.23 1000.12C1447.85 1000.36 1447.47 1000.6 1447.08 1000.84C1444.69 1002.34 1442.13 1003.88 1439.4 1005.18C1433.95 1007.77 1427.84 1009.35 1421.03 1007.52C1403.11 1002.72 1385.9 988.276 1379.51 974.459C1377.54 970.202 1375.64 964.64 1374.54 959.009C1373.44 953.368 1373.14 947.71 1374.34 943.235C1375.92 937.352 1378.93 930.911 1382.55 925.34C1386.17 919.76 1390.38 915.106 1394.33 912.748C1394.73 912.509 1395.16 912.249 1395.63 911.972C1399.97 909.359 1406.99 905.144 1414.66 901.836C1423.17 898.165 1432.35 895.67 1439.55 897.599Z" stroke="#888888" stroke-opacity="0.16"/>
<path d="M1432.69 924.451C1435.66 925.247 1439.13 927.277 1442.3 929.681C1445.47 932.08 1448.3 934.815 1450 936.974C1452.04 939.561 1452.72 943.884 1452.63 948.499C1452.53 953.085 1451.68 957.834 1450.79 961.159C1449.98 964.191 1448 966.702 1445.66 968.765C1443.33 970.827 1440.67 972.414 1438.55 973.607C1437.72 974.075 1436.82 974.679 1435.89 975.31C1435.71 975.432 1435.52 975.556 1435.34 975.679C1434.19 976.447 1432.98 977.235 1431.69 977.899C1429.12 979.226 1426.29 980.035 1423.17 979.2C1414.81 976.959 1406.84 969.914 1403.96 963.117C1403.07 961.017 1402.22 958.263 1401.74 955.469C1401.27 952.667 1401.18 949.873 1401.77 947.667C1402.56 944.732 1404.02 941.501 1405.77 938.698C1407.52 935.884 1409.53 933.554 1411.37 932.37C1411.57 932.247 1411.77 932.114 1411.99 931.971C1414.07 930.626 1417.41 928.468 1421.05 926.757C1423.07 925.811 1425.16 925.01 1427.16 924.559C1429.17 924.107 1431.06 924.014 1432.69 924.451Z" stroke="#888888" stroke-opacity="0.16"/>
<path d="M1448.55 861.095C1459.66 864.074 1472.58 871.377 1484.33 879.874C1496.09 888.366 1506.64 898.017 1513.05 905.649C1520.94 915.037 1523.64 930.334 1523.56 946.254C1523.49 962.147 1520.65 978.54 1517.58 990.004C1514.71 1000.7 1507.45 1009.42 1498.96 1016.47C1490.47 1023.52 1480.78 1028.87 1473.12 1032.86C1470.16 1034.4 1466.99 1036.4 1463.62 1038.51C1462.96 1038.93 1462.29 1039.34 1461.62 1039.76C1457.49 1042.34 1453.07 1045.02 1448.35 1047.26C1438.9 1051.75 1428.27 1054.5 1416.42 1051.33C1385.43 1043.02 1355.66 1018.05 1344.59 994.12C1341.19 986.754 1337.9 977.137 1336 967.398C1334.09 957.649 1333.58 947.831 1335.66 940.038C1338.39 929.852 1343.6 918.711 1349.86 909.079C1356.12 899.437 1363.41 891.362 1370.29 887.254C1370.98 886.843 1371.73 886.395 1372.52 885.916C1380.02 881.412 1392.13 874.132 1405.38 868.418C1420.06 862.085 1436 857.734 1448.55 861.095Z" stroke="#888888" stroke-opacity="0.16"/>
<path d="M729.139 891.109C759.492 899.242 794.673 919.154 826.657 942.263C858.636 965.369 887.372 991.637 904.84 1012.44C926.465 1038.19 933.795 1080.02 933.593 1123.32C933.392 1166.59 925.669 1211.2 917.307 1242.4C909.456 1271.7 889.587 1295.52 866.437 1314.74C843.289 1333.96 816.9 1348.54 796.068 1359.39C788.072 1363.56 779.484 1368.95 770.325 1374.7C768.538 1375.82 766.729 1376.96 764.899 1378.1C753.678 1385.11 741.63 1392.4 728.742 1398.52C702.971 1410.76 673.88 1418.32 641.421 1409.63C557.002 1387.01 475.88 1319 445.704 1253.72C436.423 1233.65 427.475 1207.46 422.283 1180.92C417.09 1154.38 415.667 1127.56 421.39 1106.2C428.832 1078.43 443.009 1048.07 460.058 1021.84C477.114 995.599 497.011 973.532 515.867 962.275C517.737 961.158 519.761 959.942 521.927 958.64C542.29 946.403 575.249 926.596 611.293 911.047C651.198 893.832 694.756 881.896 729.139 891.109Z" stroke="#888888" stroke-opacity="0.16"/>
<path d="M735.21 827.108C772.047 836.978 814.734 861.14 853.535 889.175C892.331 917.207 927.196 949.076 948.392 974.318C974.676 1005.62 989.061 1053.51 994.325 1103.08C999.589 1152.65 995.727 1203.83 985.591 1241.66C976.047 1277.28 954.141 1313.68 928.291 1344.47C902.44 1375.26 872.682 1400.4 847.48 1413.53C824.37 1425.56 789.416 1441.55 750.365 1451.87C711.309 1462.2 668.198 1466.85 628.752 1456.28C526.322 1428.84 427.893 1346.32 391.274 1267.11C368.766 1218.43 360.765 1143.2 374.685 1091.25C383.724 1057.52 397.709 1019.89 415.171 987.276C432.641 954.644 453.556 927.097 476.425 913.444C478.693 912.09 481.148 910.615 483.775 909.036C508.475 894.193 548.461 870.163 592.191 851.298C640.599 830.415 693.464 815.922 735.21 827.108Z" stroke="#888888" stroke-opacity="0.16"/>
<path d="M743.041 790.285C785.866 801.76 835.2 825.771 879.997 854.261C924.796 882.752 965.017 915.696 989.631 945.009C1020.18 981.388 1036.89 1037.03 1043.01 1094.63C1049.12 1152.21 1044.63 1211.67 1032.86 1255.62C1021.77 1297.01 996.314 1339.3 966.282 1375.08C936.249 1410.85 901.675 1440.06 872.388 1455.32C845.541 1469.3 804.933 1487.87 759.563 1499.86C714.189 1511.86 664.095 1517.27 618.256 1504.99C558.739 1489.04 495.558 1461.56 441.94 1426.55C388.313 1391.54 344.299 1349.04 323.047 1303.07C309.998 1274.85 305.943 1234.43 307.191 1193.46C308.439 1152.51 314.983 1111.08 323.076 1080.87C333.577 1041.68 349.824 997.969 370.111 960.075C390.406 922.166 414.71 890.152 441.293 874.281C468.66 857.943 519.814 830.423 576.287 810.25C632.782 790.069 694.499 777.278 743.041 790.285Z" stroke="#888888" stroke-opacity="0.16"/>
<path d="M1050.26 913.113L1050.29 913.146L1050.32 913.173C1099.36 954.55 1119.08 1022.52 1123.17 1092.66C1127.27 1162.79 1115.75 1235 1102.43 1284.7C1089.9 1331.45 1055.37 1375.83 1015.63 1412.85C975.896 1449.87 931.01 1479.49 897.862 1496.75C867.518 1512.56 821.617 1533.55 770.335 1547.1C719.048 1560.66 662.42 1566.78 610.597 1552.9C476.038 1516.84 345.867 1428.59 297.788 1324.6C283.023 1292.66 275.374 1248.33 273.712 1203.42C272.05 1158.51 276.375 1113.08 285.518 1078.96C297.391 1034.64 313.615 983.86 334.405 939.66C355.205 895.438 380.535 857.895 410.579 839.959L410.65 839.916L410.703 839.854C463.244 778.231 544.925 749.998 627.288 740.871C709.644 731.744 792.599 741.73 847.582 756.463C939.826 781.18 989.709 840.779 1042.47 903.811C1045.06 906.905 1047.65 910.006 1050.26 913.113Z" stroke="#888888" stroke-opacity="0.16"/>
<path d="M1068.71 894.664L1068.74 894.697L1068.77 894.725C1122.59 940.137 1148.33 1018.77 1156.94 1099.77C1165.54 1180.76 1157.01 1264.01 1142.4 1318.53C1128.66 1369.83 1088.51 1423.31 1042.66 1468.72C996.817 1514.12 945.328 1551.41 908.975 1570.34C875.729 1587.66 822.545 1603.73 763.423 1611.65C704.303 1619.57 639.295 1619.34 582.395 1604.1C434.765 1564.54 291.941 1467.71 239.186 1353.61C222.984 1318.56 214.592 1269.92 212.769 1220.64C210.945 1171.37 215.69 1121.53 225.722 1084.09C238.749 1035.47 256.548 979.754 279.358 931.259C302.178 882.743 329.973 841.543 362.946 821.857L363.017 821.815L363.071 821.753C420.741 754.115 509.376 715.863 598.726 698.571C688.074 681.279 778.06 684.961 838.357 701.117C891.426 715.337 933.717 745.498 970.394 781.225C997.682 807.807 1021.84 837.444 1045.02 865.879C1053 875.674 1060.87 885.327 1068.71 894.664Z" stroke="#888888" stroke-opacity="0.16"/>
<path d="M700.513 1038.34C713.384 1041.78 728.326 1050.24 741.929 1060.07C755.527 1069.89 767.74 1081.06 775.157 1089.89C784.293 1100.77 787.415 1118.48 787.329 1136.9C787.243 1155.29 783.961 1174.25 780.406 1187.52C777.086 1199.91 768.677 1210 758.847 1218.16C749.018 1226.32 737.808 1232.52 728.944 1237.13C725.529 1238.91 721.861 1241.22 717.963 1243.67C717.203 1244.14 716.434 1244.63 715.657 1245.11C710.882 1248.09 705.765 1251.19 700.295 1253.79C689.359 1258.98 677.05 1262.17 663.323 1258.49C627.463 1248.89 593.005 1219.99 580.199 1192.29C576.258 1183.77 572.456 1172.64 570.251 1161.37C568.044 1150.09 567.447 1138.72 569.867 1129.69C573.026 1117.9 579.046 1105.01 586.29 1093.86C593.54 1082.71 601.98 1073.36 609.952 1068.6C610.748 1068.12 611.61 1067.6 612.532 1067.05C621.2 1061.84 635.214 1053.42 650.538 1046.81C667.518 1039.48 685.979 1034.44 700.513 1038.34Z" stroke="#888888" stroke-opacity="0.16"/>
<path d="M686.824 1091.88C692.84 1093.49 699.813 1097.59 706.165 1102.39C712.511 1107.2 718.186 1112.68 721.611 1117.03C725.79 1122.33 727.132 1131.1 726.945 1140.33C726.758 1149.52 725.056 1159.03 723.271 1165.69C721.617 1171.87 717.591 1176.95 712.892 1181.1C708.194 1185.25 702.856 1188.43 698.626 1190.82C696.985 1191.74 695.22 1192.93 693.355 1194.19C692.991 1194.43 692.625 1194.68 692.254 1194.93C689.971 1196.46 687.534 1198.04 684.937 1199.38C679.746 1202.06 673.966 1203.73 667.59 1202.02C650.768 1197.51 634.751 1183.36 628.94 1169.66C627.15 1165.44 625.444 1159.91 624.493 1154.3C623.54 1148.68 623.353 1143.03 624.559 1138.53C626.141 1132.62 629.084 1126.13 632.593 1120.51C636.107 1114.87 640.155 1110.15 643.922 1107.74C644.303 1107.49 644.715 1107.22 645.156 1106.94C649.303 1104.26 655.991 1099.94 663.282 1096.51C667.314 1094.62 671.516 1093 675.56 1092.09C679.607 1091.18 683.464 1090.98 686.824 1091.88Z" stroke="#888888" stroke-opacity="0.16"/>
<path d="M718.443 965.544C740.697 971.507 766.502 986.111 789.971 1003.07C813.435 1020.02 834.517 1039.29 847.328 1054.55C863.168 1073.41 868.549 1104.07 868.401 1135.84C868.253 1167.58 862.587 1200.32 856.453 1223.21C850.7 1244.68 836.14 1262.14 819.161 1276.23C802.183 1290.33 782.825 1301.03 767.537 1308.99C761.664 1312.05 755.355 1316.01 748.633 1320.23C747.322 1321.05 745.995 1321.89 744.653 1322.73C736.418 1327.87 727.581 1333.22 718.129 1337.71C699.231 1346.68 677.914 1352.22 654.132 1345.85C592.209 1329.25 532.704 1279.36 510.575 1231.5C503.768 1216.77 497.203 1197.56 493.395 1178.1C489.586 1158.63 488.545 1138.96 492.738 1123.31C498.196 1102.94 508.594 1080.68 521.101 1061.44C533.614 1042.18 548.203 1026.01 562.017 1017.76C563.39 1016.94 564.875 1016.05 566.465 1015.09C581.41 1006.11 605.593 991.58 632.039 980.171C661.324 967.538 693.255 958.795 718.443 965.544Z" stroke="#888888" stroke-opacity="0.16"/>
</g>
<defs>
<clipPath id="clip0_1_1067">
<rect width="1920" height="1080" fill="none"/>
</clipPath>
</defs>
</svg>
