<svg width="117" height="105" viewBox="0 0 117 105" fill="none" xmlns="http://www.w3.org/2000/svg">
<g clip-path="url(#clip0_51_794)">
<path d="M117 52.0859C117 44.3387 107.294 36.9966 92.4124 32.4434C95.8467 17.2827 94.3204 5.22058 87.5948 1.35872C86.0446 0.453083 84.232 0.0239867 82.253 0.0239867V5.33945C83.35 5.33945 84.2325 5.55373 84.9716 5.95937C88.215 7.81861 89.6223 14.8984 88.5248 24.0049C88.2625 26.2458 87.8332 28.6055 87.3084 31.0132C82.6343 29.8688 77.5304 28.9872 72.1646 28.4147C68.9452 24.0049 65.6064 20.0001 62.2436 16.4959C70.0181 9.27327 77.316 5.31599 82.276 5.31599V0C75.7178 0 67.1321 4.67208 58.4515 12.7769C49.7714 4.72006 41.1862 0.0954139 34.6281 0.0954139V5.41141C39.5646 5.41141 46.8859 9.3447 54.6604 16.5199C51.3216 20.0241 47.9828 24.0049 44.8109 28.4152C39.4211 28.9872 34.3177 29.8693 29.6436 31.0372C29.0948 28.6535 28.6895 26.3412 28.4037 24.1243C27.2828 15.0184 28.6661 7.93854 31.8854 6.05532C32.6011 5.62622 33.5311 5.43539 34.6281 5.43539V0.119401C32.6245 0.119401 30.8125 0.548497 29.2383 1.45413C22.5366 5.31599 21.0344 17.3541 24.4927 32.4674C9.65863 37.044 0 44.3621 0 52.0859C0 59.8096 9.70609 67.1751 24.5876 71.7283C21.1533 86.889 22.6795 98.9511 29.4052 102.813C30.9554 103.719 32.768 104.148 34.771 104.148C41.3292 104.148 49.9148 99.4757 58.5955 91.3708C67.2761 99.4282 75.8618 104.052 82.4199 104.052C84.4234 104.052 86.2355 103.623 87.8097 102.718C94.5114 98.8557 96.0136 86.8176 92.5553 71.7043C107.341 67.1511 117 59.8091 117 52.0859V52.0859ZM85.9497 36.1859C85.0671 39.261 83.9702 42.4315 82.7303 45.602C81.7523 43.6948 80.7268 41.7881 79.6064 39.8809C78.5095 37.9737 77.3411 36.1144 76.1721 34.3026C79.5584 34.8032 82.8258 35.4231 85.9502 36.1859H85.9497ZM75.0272 61.5734C73.1671 64.7914 71.2591 67.843 69.2796 70.6793C65.7264 70.989 62.1252 71.1558 58.5 71.1558C54.8748 71.1558 51.2976 70.989 47.7684 70.7028C45.7889 67.8659 43.8574 64.8388 41.9973 61.6443C40.1848 58.5218 38.5391 55.3513 37.0368 52.1568C38.5156 48.9623 40.1848 45.7683 41.9734 42.6452C43.8334 39.4273 45.7415 36.3756 47.721 33.5393C51.2742 33.2296 54.8753 33.0628 58.5005 33.0628C62.1257 33.0628 65.7029 33.2296 69.2321 33.5159C71.2116 36.3527 73.1431 39.3798 75.0032 42.5743C76.8158 45.6969 78.4615 48.8674 79.9637 52.0619C78.4615 55.2564 76.8158 58.4503 75.0272 61.5734V61.5734ZM82.7303 58.4743C84.0182 61.6688 85.1151 64.8628 86.0211 67.9619C82.8972 68.7247 79.6059 69.3686 76.1956 69.8691C77.364 68.0333 78.5329 66.1506 79.6299 64.2194C80.7268 62.3122 81.7523 60.3815 82.7303 58.4743V58.4743ZM58.548 83.9093C56.3301 81.621 54.1122 79.0704 51.9183 76.281C54.0648 76.3764 56.2587 76.4478 58.4765 76.4478C60.6944 76.4478 62.9363 76.4004 65.1062 76.281C62.9598 79.0699 60.7419 81.6205 58.548 83.9093V83.9093ZM40.8049 69.8686C37.4187 69.368 34.1513 68.7481 31.0269 67.9853C31.9094 64.9102 33.0064 61.7397 34.2462 58.5692C35.2243 60.4764 36.2497 62.3831 37.3701 64.2903C38.4905 66.1975 39.6355 68.0568 40.8044 69.8686H40.8049ZM58.4291 20.2619C60.647 22.5502 62.8648 25.1008 65.0587 27.8902C62.9123 27.7948 60.7184 27.7233 58.5005 27.7233C56.2827 27.7233 54.0408 27.7708 51.8709 27.8902C54.0173 25.1013 56.2352 22.5507 58.4291 20.2619ZM40.7815 34.3026C39.6131 36.1379 38.4442 38.0211 37.3472 39.9523C36.2503 41.8595 35.2248 43.7662 34.2468 45.6734C32.9589 42.4789 31.862 39.2849 30.9559 36.1859C34.0798 35.4471 37.3712 34.8032 40.7815 34.3026ZM19.1989 64.1475C10.7566 60.5478 5.2954 55.8278 5.2954 52.0853C5.2954 48.3429 10.7566 43.5988 19.1989 40.0232C21.2498 39.141 23.4917 38.3548 25.8051 37.6155C27.1644 42.2875 28.953 47.1505 31.1708 52.1328C28.977 57.0911 27.2118 61.93 25.8765 66.5786C23.5157 65.8399 21.2738 65.0291 19.1989 64.1469V64.1475ZM32.0294 98.2118C28.7861 96.3526 27.3787 89.2728 28.4762 80.1663C28.7386 77.9254 29.1679 75.5657 29.6926 73.1579C34.3667 74.3024 39.4707 75.184 44.8365 75.7565C48.0559 80.1663 51.3947 84.171 54.7575 87.6752C46.9829 94.8979 39.6851 98.8552 34.7251 98.8552C33.6522 98.8312 32.7456 98.6169 32.0305 98.2118H32.0294ZM88.5979 80.0475C89.7188 89.1534 88.3355 96.2332 85.1162 98.1164C84.4005 98.5455 83.4705 98.7363 82.3735 98.7363C77.437 98.7363 70.1157 94.803 62.3412 87.6278C65.68 84.1236 69.0188 80.1429 72.1907 75.7325C77.5805 75.1606 82.6839 74.2784 87.358 73.1105C87.9068 75.5182 88.3361 77.8306 88.5979 80.0475V80.0475ZM97.7793 64.1475C95.7283 65.0296 93.4864 65.8159 91.1731 66.5552C89.8138 61.8831 88.0252 57.0202 85.8073 52.0379C88.0012 47.0796 89.7663 42.2406 91.1016 37.592C93.4624 38.3308 95.7043 39.1416 97.8033 40.0237C106.245 43.6233 111.707 48.3434 111.707 52.0859C111.683 55.8283 106.221 60.5724 97.7793 64.148V64.1475Z" fill="#B9B9B9"/>
<path d="M58.4759 62.9796C64.495 62.9796 69.3744 58.1023 69.3744 52.0858C69.3744 46.0694 64.495 41.1921 58.4759 41.1921C52.4568 41.1921 47.5774 46.0694 47.5774 52.0858C47.5774 58.1023 52.4568 62.9796 58.4759 62.9796Z" fill="#B9B9B9"/>
</g>
<defs>
<clipPath id="clip0_51_794">
<rect width="117" height="104.148" fill="white"/>
</clipPath>
</defs>
</svg>
