<svg width="150" height="100" viewBox="0 0 150 100" fill="none" xmlns="http://www.w3.org/2000/svg">
<g clip-path="url(#clip0_51_783)">
<path d="M51.1692 99.4002L22.6212 21.0395L101.02 0L115.281 82.1891L85.5564 99.7253L51.1692 99.4002" fill="#767676"/>
<path d="M83.7834 92.8925L107.799 78.7159L95.6094 8.48035L63.5688 17.0799L83.7834 92.8925Z" fill="#888888"/>
<path d="M138.307 40.5399L141.959 53.149L113.994 61.0762C113.994 61.0762 113.994 77.9514 100.423 84.6602C86.853 91.369 76.3104 85.6799 76.3104 85.6799L74.6226 80.8005L94.7532 75.3094L99.2088 58.0249L86.2398 45.2267L67.5972 50.8833L65.9784 46.4439C65.9784 46.4439 74.6892 27.1295 100.427 38.1146C100.427 38.1146 108.538 43.1921 110.356 47.6694L138.308 40.5393L138.307 40.5399ZM141.959 39.593L146.416 38.3048L150.001 51.1819L145.337 52.6007L141.96 39.593H141.959Z" fill="#EFEFEF"/>
<path d="M143.529 39.0241L146.416 38.3048L150.001 51.1818L145.337 52.6006L144.116 48.2888L145.977 47.5581L143.53 39.0241H143.529ZM135.223 41.3284L138.307 40.5393L141.959 53.1484L113.994 61.0756C113.994 61.0756 113.693 75.8 103.96 82.4672C94.2444 89.1285 83.2944 88.928 76.3068 85.6799L75.528 83.4298C75.528 83.4298 94.5438 87.9155 103.96 73.5812C109.639 64.1305 109.538 57.317 109.538 57.317L137.601 49.6956L135.223 41.3284H135.223ZM65.9736 46.436L82.3878 41.6571L86.2314 45.2183L67.5924 50.8748L65.9736 46.436Z" fill="#BCBCBC"/>
<path d="M8.106 55.3732L11.4012 68.0787L39.4638 60.538C39.4638 60.538 48.075 75.0307 63.1596 73.8238C78.249 72.6175 84.3966 62.3204 84.3966 62.3204L83.3568 57.2634L63.2646 62.8814L50.6184 50.3271L55.2312 32.6627L74.1372 27.953L73.2618 23.3053C73.2618 23.3053 55.9296 11.1825 39.4146 33.8305C39.4146 33.8305 35.0436 42.353 35.7564 47.1331L8.106 55.3732V55.3732ZM4.4868 56.4369L0 57.6161L3.4884 70.5154L8.2212 69.344L4.4862 56.4375L4.4868 56.4369Z" fill="#EFEFEF"/>
<path d="M2.8488 56.7487L0 57.6161L3.4884 70.5154L8.2212 69.344L7.0764 65.0087L5.0958 65.3386L2.8488 56.7493V56.7487ZM11.166 54.4673L8.1054 55.3732L11.4006 68.0787L39.4632 60.538C39.4632 60.538 47.2368 73.028 58.9968 73.763C70.7448 74.4901 80.0448 68.7053 84.396 62.3204L83.922 59.989C83.922 59.989 69.8658 73.6083 54.4602 66.1254C44.763 60.9209 41.3784 55.0079 41.3784 55.0079L13.3776 62.873L11.1648 54.4667L11.166 54.4673ZM73.2618 23.3095L56.727 27.6249L55.2354 32.6633L74.1408 27.9536L73.2618 23.3095Z" fill="#BCBCBC"/>
</g>
<defs>
<clipPath id="clip0_51_783">
<rect width="150" height="99.7253" fill="white"/>
</clipPath>
</defs>
</svg>
