<svg width="24" height="24" viewBox="0 0 24 24" fill="none" xmlns="http://www.w3.org/2000/svg">
<circle cx="12" cy="12" r="12"/>
<path fill-rule="evenodd" clip-rule="evenodd" d="M12.3156 6.31543C9.17787 6.31543 6.63135 8.86196 6.63135 11.9996C6.63135 15.1373 9.17787 17.6839 12.3156 17.6839C15.4532 17.6839 17.9998 15.1373 17.9998 11.9996C17.9998 8.86196 15.4532 6.31543 12.3156 6.31543ZM12.884 14.8417H11.7471V13.7049H12.884V14.8417ZM12.884 12.5681H11.7471V9.15754H12.884V12.5681Z" fill="#fff"/>
<mask id="mask0_306_6227" style="mask-type:alpha" maskUnits="userSpaceOnUse" x="6" y="6" width="12" height="12">
<path fill-rule="evenodd" clip-rule="evenodd" d="M12.3156 6.31543C9.17787 6.31543 6.63135 8.86196 6.63135 11.9996C6.63135 15.1373 9.17787 17.6839 12.3156 17.6839C15.4532 17.6839 17.9998 15.1373 17.9998 11.9996C17.9998 8.86196 15.4532 6.31543 12.3156 6.31543ZM12.884 14.8417H11.7471V13.7049H12.884V14.8417ZM12.884 12.5681H11.7471V9.15754H12.884V12.5681Z" fill="#fff" />
</mask>
<g mask="url(#mask0_306_6227)">
<rect x="4.73682" y="4.4209" width="15.1579" height="15.1579" fill="white"/>
</g>
</svg>
